<?xml version="1.0" encoding="UTF-8" standalone="no"?>
<svg
   xmlns:dc="http://purl.org/dc/elements/1.1/"
   xmlns:cc="http://creativecommons.org/ns#"
   xmlns:rdf="http://www.w3.org/1999/02/22-rdf-syntax-ns#"
   xmlns:svg="http://www.w3.org/2000/svg"
   xmlns="http://www.w3.org/2000/svg"
   xmlns:sodipodi="http://sodipodi.sourceforge.net/DTD/sodipodi-0.dtd"
   xmlns:inkscape="http://www.inkscape.org/namespaces/inkscape"
   version="1.1"
   width="50"
   height="30.000227"
   id="svg237"
   viewBox="0 0 50 30.000227"
   sodipodi:docname="logo.svg"
   inkscape:version="0.92.4 (5da689c313, 2019-01-14)">
  <metadata
     id="metadata243">
    <rdf:RDF>
      <cc:Work
         rdf:about="">
        <dc:format>image/svg+xml</dc:format>
        <dc:type
           rdf:resource="http://purl.org/dc/dcmitype/StillImage" />
        <dc:title></dc:title>
      </cc:Work>
    </rdf:RDF>
  </metadata>
  <defs
     id="defs241" />
  <sodipodi:namedview
     pagecolor="#ffffff"
     bordercolor="#666666"
     borderopacity="1"
     objecttolerance="10"
     gridtolerance="10"
     guidetolerance="10"
     inkscape:pageopacity="0"
     inkscape:pageshadow="2"
     inkscape:window-width="1366"
     inkscape:window-height="699"
     id="namedview239"
     showgrid="false"
     borderlayer="false"
     inkscape:pagecheckerboard="true"
     fit-margin-top="0"
     fit-margin-left="0"
     fit-margin-right="0"
     fit-margin-bottom="0"
     inkscape:zoom="1.0414812"
     inkscape:cx="-48.9593"
     inkscape:cy="76.085088"
     inkscape:window-x="0"
     inkscape:window-y="33"
     inkscape:window-maximized="1"
     inkscape:current-layer="svg237" />
  <path
     d="m 23.3186,28.585967 -0.104942,1.35308 c -0.0018,0.0244 -0.01201,0.0366 -0.03037,0.0366 h -0.15183 c -0.103092,0 -0.17672,-0.0179 -0.220934,-0.0537 -0.0442,-0.0358 -0.06628,-0.0869 -0.06628,-0.15362 0,-0.0244 0.0014,-0.0609 0.0042,-0.10966 0.0027,-0.0488 0.0069,-0.10614 0.01237,-0.1719 0.0055,-0.0658 0.01155,-0.13735 0.01797,-0.21453 0.0064,-0.0772 0.01334,-0.15529 0.02069,-0.23406 0.0073,-0.0788 0.01429,-0.15731 0.02073,-0.23519 0.0064,-0.0781 0.0124,-0.1504 0.01795,-0.21704 h -0.441818 c -0.02016,0 -0.03036,-0.0113 -0.03036,-0.0341 l 0.0083,-0.13659 c 0.0019,-0.0211 0.006,-0.0418 0.01242,-0.0622 0.0064,-0.0203 0.01708,-0.0387 0.03174,-0.0549 0.0147,-0.0163 0.03366,-0.0293 0.05662,-0.039 0.02295,-0.01 0.05107,-0.0146 0.08421,-0.0146 h 1.234285 c 0.01107,0 0.02121,0.002 0.03039,0.007 0.0092,0.005 0.01377,0.0138 0.01377,0.0269 l -0.01102,0.14377 c -0.0037,0.0488 -0.01884,0.0882 -0.04553,0.11824 -0.02671,0.0301 -0.08152,0.0451 -0.164301,0.0451 z m 1.006242,1.41403 c -0.127059,0 -0.23243,-0.0159 -0.316199,-0.0476 -0.08374,-0.0317 -0.150545,-0.0751 -0.200224,-0.13038 -0.04966,-0.0553 -0.08464,-0.11991 -0.104891,-0.19386 -0.0202,-0.074 -0.03039,-0.15313 -0.03039,-0.23767 0,-0.0975 0.01343,-0.19305 0.04005,-0.28649 0.02664,-0.0934 0.07233,-0.17674 0.136721,-0.24981 0.06441,-0.0731 0.149551,-0.13208 0.255401,-0.17674 0.105817,-0.0447 0.237895,-0.0671 0.396268,-0.0671 0.231916,0 0.398032,0.05 0.498367,0.14999 0.100266,0.0999 0.150493,0.24011 0.150493,0.42053 0,0.0504 -0.0042,0.10602 -0.01245,0.16694 -0.0083,0.061 -0.02395,0.12155 -0.04692,0.18166 -0.02299,0.0601 -0.05434,0.11869 -0.09388,0.17556 -0.03949,0.0569 -0.08976,0.10728 -0.150459,0.15113 -0.06076,0.0439 -0.133928,0.0789 -0.21953,0.10488 -0.08557,0.0259 -0.1864,0.039 -0.302357,0.039 z m 0.129782,-1.06542 c -0.07,0 -0.125705,0.0159 -0.167076,0.0476 -0.04144,0.0316 -0.07279,0.0699 -0.09391,0.11456 -0.02112,0.0447 -0.03498,0.0919 -0.0414,0.14148 -0.0064,0.0495 -0.0097,0.0914 -0.0097,0.12551 0,0.10726 0.01932,0.18614 0.05797,0.23648 0.03865,0.0504 0.09388,0.0756 0.165757,0.0756 0.06436,0 0.117311,-0.0179 0.158716,-0.0536 0.04141,-0.0358 0.07363,-0.0788 0.09663,-0.12923 0.02296,-0.0504 0.03865,-0.10325 0.04692,-0.15845 0.0083,-0.0553 0.01245,-0.10157 0.01245,-0.13895 0,-0.0813 -0.0171,-0.14509 -0.05112,-0.19137 -0.03406,-0.0463 -0.09247,-0.0695 -0.175281,-0.0695 z m 1.373438,1.06542 c -0.07176,0 -0.140352,-0.0114 -0.205689,-0.0342 -0.06535,-0.0228 -0.12245,-0.0585 -0.171204,-0.10725 -0.04877,-0.0487 -0.0875,-0.11051 -0.115958,-0.18526 -0.02852,-0.0748 -0.04281,-0.16501 -0.04281,-0.27063 0,-0.0471 0.0038,-0.0996 0.01105,-0.15722 0.0073,-0.0577 0.0203,-0.11582 0.03866,-0.17437 0.0184,-0.0585 0.0442,-0.11537 0.07735,-0.17062 0.0331,-0.0552 0.07498,-0.10447 0.12562,-0.14753 0.05055,-0.0431 0.111435,-0.0776 0.182236,-0.10357 0.07089,-0.026 0.154177,-0.0391 0.249886,-0.0391 0.09204,0 0.166151,0.0142 0.222288,0.0427 0.05616,0.0284 0.0916,0.0776 0.106296,0.14749 0.0038,-0.0634 0.0074,-0.11865 0.01107,-0.16579 0.0037,-0.0471 0.0069,-0.091 0.0097,-0.13164 0.0028,-0.0407 0.006,-0.0813 0.0096,-0.12192 0.0036,-0.0406 0.0074,-0.0869 0.01105,-0.13888 0.0019,-0.0358 0.0064,-0.057 0.01383,-0.0634 0.0036,-0.003 0.0083,-0.005 0.01381,-0.006 0.0055,-8e-4 0.01566,-10e-4 0.03036,-10e-4 h 0.107683 c 0.05532,0 0.101346,0.006 0.138091,0.0171 0.03676,0.0114 0.06628,0.0268 0.08836,0.0464 0.02208,0.0195 0.03781,0.0418 0.04696,0.067 0.0091,0.0251 0.01377,0.0516 0.01377,0.0792 0,0 -0.0018,0.0204 -0.0055,0.061 -0.0036,0.0406 -0.0083,0.0947 -0.01383,0.16213 -0.0055,0.0674 -0.01189,0.14427 -0.01929,0.23035 -0.0074,0.0862 -0.01477,0.17523 -0.02212,0.26697 -0.0073,0.0919 -0.01477,0.18287 -0.02208,0.27304 -0.0073,0.0901 -0.01477,0.17314 -0.02212,0.2487 -0.0073,0.0755 -0.01338,0.14059 -0.01794,0.19501 -0.0046,0.0544 -0.0078,0.0907 -0.0097,0.10851 -0.0037,0.0195 -0.0083,0.0325 -0.01377,0.039 -0.0055,0.006 -0.02124,0.01 -0.04692,0.01 h -0.09946 c -0.03861,0 -0.075,-0.003 -0.109054,-0.009 -0.03399,-0.006 -0.06349,-0.0155 -0.08841,-0.0292 -0.02479,-0.0137 -0.04416,-0.0325 -0.05797,-0.056 -0.01377,-0.0236 -0.02069,-0.054 -0.02069,-0.0915 -0.03313,0.0618 -0.08326,0.11227 -0.150459,0.15121 -0.06715,0.039 -0.151452,0.0585 -0.252712,0.0585 z m 0.240224,-1.06542 c -0.09379,0 -0.163358,0.0362 -0.208395,0.10851 -0.04509,0.0723 -0.06772,0.16944 -0.06772,0.29135 0,0.0422 0.0032,0.0837 0.0097,0.12437 0.0064,0.0406 0.01804,0.0772 0.03453,0.10965 0.01657,0.0325 0.03909,0.0585 0.06763,0.0781 0.02852,0.0195 0.06489,0.0292 0.10914,0.0292 0.07914,0 0.145423,-0.0342 0.198768,-0.10242 0.0534,-0.0682 0.0801,-0.17553 0.0801,-0.32183 0,-0.0406 -0.0028,-0.08 -0.0083,-0.11821 -0.0055,-0.0382 -0.01657,-0.0719 -0.03313,-0.10115 -0.01653,-0.0293 -0.03962,-0.0529 -0.06905,-0.0707 -0.02943,-0.0179 -0.06715,-0.0268 -0.113234,-0.0268 z m 1.517113,1.06542 c -0.12699,0 -0.232429,-0.0159 -0.316164,-0.0476 -0.08379,-0.0317 -0.150579,-0.0751 -0.200224,-0.13038 -0.04966,-0.0553 -0.08473,-0.11983 -0.104926,-0.19386 -0.02021,-0.0739 -0.03036,-0.15313 -0.03036,-0.23767 0,-0.0975 0.01335,-0.19305 0.04002,-0.28649 0.02664,-0.0934 0.07228,-0.17674 0.136686,-0.24981 0.06445,-0.0731 0.149603,-0.13208 0.255419,-0.17674 0.105817,-0.0447 0.237946,-0.0671 0.396234,-0.0671 0.23195,0 0.3981,0.05 0.498418,0.14999 0.1003,0.0999 0.150493,0.24011 0.150493,0.42053 0,0.0504 -0.0042,0.10602 -0.01242,0.16694 -0.0083,0.061 -0.024,0.12155 -0.04696,0.18166 -0.02301,0.0601 -0.0543,0.11869 -0.09388,0.17556 -0.03954,0.0569 -0.08973,0.10728 -0.150494,0.15113 -0.06075,0.0439 -0.133927,0.0789 -0.219547,0.10488 -0.08548,0.0259 -0.186348,0.039 -0.302306,0.039 z m 0.129731,-1.06542 c -0.06996,0 -0.125653,0.0159 -0.167024,0.0476 -0.04146,0.0316 -0.07275,0.0699 -0.09393,0.11456 -0.02112,0.0447 -0.03496,0.0919 -0.04135,0.14148 -0.0064,0.0495 -0.0097,0.0914 -0.0097,0.12551 0,0.10726 0.01934,0.18611 0.05799,0.23648 0.03865,0.0504 0.09384,0.0756 0.165671,0.0756 0.06441,0 0.117431,-0.0179 0.158802,-0.0536 0.04137,-0.0357 0.07359,-0.0788 0.0966,-0.12923 0.02295,-0.0504 0.03868,-0.1032 0.04696,-0.15845 0.0083,-0.0552 0.01242,-0.10157 0.01242,-0.13895 0,-0.0813 -0.0171,-0.14509 -0.05108,-0.19137 -0.03406,-0.0463 -0.09251,-0.0695 -0.175368,-0.0695 z m 1.967172,1.06542 c -0.07176,0 -0.140352,-0.0115 -0.205689,-0.0342 -0.06532,-0.0228 -0.122501,-0.0585 -0.171221,-0.10725 -0.04879,-0.0487 -0.08745,-0.11051 -0.115958,-0.18526 -0.02854,-0.0748 -0.04281,-0.16501 -0.04281,-0.27063 0,-0.0471 0.0037,-0.0996 0.01107,-0.15722 0.0073,-0.0577 0.02021,-0.11586 0.03861,-0.17437 0.01841,-0.0585 0.04428,-0.11537 0.07734,-0.17062 0.03318,-0.0552 0.075,-0.10447 0.125619,-0.14753 0.05059,-0.0431 0.111453,-0.0776 0.182237,-0.10357 0.07092,-0.026 0.154262,-0.0391 0.249886,-0.0391 0.09204,0 0.166202,0.0142 0.222339,0.0427 0.0561,0.0284 0.09156,0.0776 0.106296,0.14749 0.0037,-0.0634 0.0074,-0.11865 0.01105,-0.16579 0.0036,-0.0471 0.007,-0.091 0.0097,-0.13164 0.0027,-0.0406 0.006,-0.0813 0.0096,-0.12192 0.0037,-0.0406 0.0074,-0.0869 0.01107,-0.13888 0.0018,-0.0358 0.0065,-0.057 0.01377,-0.0634 0.0037,-0.003 0.0083,-0.005 0.01386,-0.006 0.0055,-8e-4 0.01566,-10e-4 0.03034,-10e-4 h 0.1077 c 0.05526,0 0.101311,0.006 0.138074,0.0171 0.03674,0.0114 0.0663,0.0268 0.08833,0.0464 0.02213,0.0195 0.03782,0.0418 0.04701,0.067 0.0091,0.0251 0.01377,0.0516 0.01377,0.0792 0,0 -0.0018,0.0204 -0.0055,0.061 -0.0036,0.0406 -0.0083,0.0948 -0.01381,0.16213 -0.0055,0.0674 -0.01199,0.14422 -0.01932,0.23035 -0.0073,0.0861 -0.01482,0.17515 -0.02213,0.26697 -0.0073,0.0918 -0.01473,0.18287 -0.02203,0.27304 -0.0074,0.0901 -0.01475,0.17319 -0.02213,0.2487 -0.0073,0.0755 -0.01333,0.14062 -0.01788,0.19501 -0.0046,0.0545 -0.0079,0.0907 -0.0097,0.10851 -0.0038,0.0195 -0.0084,0.0325 -0.01389,0.039 -0.0054,0.006 -0.02117,0.01 -0.04692,0.01 h -0.09939 c -0.03861,0 -0.07503,-0.003 -0.109088,-0.009 -0.03402,-0.006 -0.06349,-0.0155 -0.08836,-0.0292 -0.02475,-0.0137 -0.0442,-0.0325 -0.05799,-0.056 -0.01377,-0.0235 -0.02068,-0.054 -0.02068,-0.0915 -0.0331,0.0618 -0.08329,0.11227 -0.150493,0.15121 -0.06717,0.039 -0.151418,0.0585 -0.252678,0.0585 z m 0.240224,-1.06542 c -0.09384,0 -0.16341,0.0362 -0.208481,0.10851 -0.04509,0.0723 -0.06765,0.16944 -0.06765,0.29135 0,0.0422 0.0032,0.0837 0.0097,0.12437 0.0064,0.0406 0.01797,0.0772 0.03455,0.10965 0.01653,0.0325 0.03913,0.0585 0.06763,0.0781 0.02847,0.0195 0.06493,0.0292 0.109089,0.0292 0.07914,0 0.145422,-0.0342 0.198768,-0.10242 0.05348,-0.0682 0.0801,-0.17553 0.0801,-0.32183 0,-0.0406 -0.0027,-0.08 -0.0082,-0.11821 -0.0055,-0.0382 -0.01662,-0.0719 -0.03318,-0.10115 -0.01657,-0.0293 -0.03961,-0.0529 -0.06904,-0.0707 -0.0294,-0.0179 -0.0672,-0.0268 -0.113234,-0.0268 z m 1.182927,1.04107 c -0.05694,0 -0.103503,-0.005 -0.139444,-0.0159 -0.03585,-0.0105 -0.06439,-0.0256 -0.0856,-0.0451 -0.02109,-0.0195 -0.03585,-0.0435 -0.04413,-0.0719 -0.0082,-0.0285 -0.01245,-0.0614 -0.01245,-0.0988 0,-0.0243 0.0014,-0.0589 0.0041,-0.1036 0.0028,-0.0447 0.0078,-0.10649 0.01518,-0.18529 0.0073,-0.0788 0.01614,-0.1788 0.02624,-0.29986 0.01009,-0.1211 0.02256,-0.271 0.03729,-0.4498 0.0018,-0.0357 0.0064,-0.0569 0.01381,-0.0634 0.0055,-0.005 0.02021,-0.007 0.04416,-0.007 h 0.107649 c 0.05711,0 0.10359,0.005 0.13953,0.0147 0.03577,0.01 0.06436,0.0244 0.0856,0.0439 0.02112,0.0195 0.03586,0.0431 0.04413,0.0707 0.0083,0.0276 0.01242,0.0585 0.01242,0.0926 0,0.0244 -0.0019,0.0609 -0.0055,0.10973 -0.0037,0.0487 -0.0088,0.11501 -0.01521,0.19869 -0.0064,0.0837 -0.01521,0.18769 -0.02624,0.31202 -0.01102,0.12434 -0.02491,0.27427 -0.04141,0.44983 -0.0018,0.0195 -0.0064,0.0325 -0.01377,0.039 -0.0074,0.007 -0.02304,0.01 -0.04696,0.01 z m -0.196009,-1.62859 c 0,-0.065 0.02671,-0.11625 0.08005,-0.15358 0.05338,-0.0374 0.125174,-0.0561 0.215384,-0.0561 0.07914,0 0.136686,0.0143 0.172575,0.0427 0.03585,0.0284 0.05391,0.0662 0.05391,0.11341 0,0.0601 -0.02535,0.11012 -0.07594,0.14987 -0.05064,0.0398 -0.124712,0.0597 -0.22234,0.0597 -0.149106,0 -0.223641,-0.052 -0.223641,-0.15603 z m 0.569922,1.3287 c 0,-0.1463 0.07455,-0.26091 0.223692,-0.34378 0.149055,-0.0829 0.369065,-0.12759 0.659927,-0.13408 0.0018,-0.0179 0.0032,-0.0329 0.0041,-0.0451 8.57e-4,-0.0122 0.0014,-0.0272 0.0014,-0.0451 0,-0.052 -0.0111,-0.0934 -0.03313,-0.12433 -0.02208,-0.0309 -0.06809,-0.0463 -0.138039,-0.0463 -0.0387,0 -0.06996,0.005 -0.09384,0.0146 -0.02397,0.01 -0.04332,0.0232 -0.05806,0.0402 -0.0147,0.0171 -0.02667,0.0378 -0.03586,0.0622 -0.0092,0.0243 -0.01754,0.0513 -0.02489,0.0805 -0.0036,0.0146 -0.01204,0.0239 -0.02479,0.028 -0.01299,0.004 -0.03318,0.006 -0.06081,0.006 -0.187718,0 -0.281629,-0.0626 -0.281629,-0.1877 0,-0.0504 0.01334,-0.0984 0.04002,-0.14385 0.02662,-0.0455 0.06628,-0.0849 0.11875,-0.11824 0.05242,-0.0333 0.118271,-0.0598 0.197415,-0.0793 0.07914,-0.0195 0.171221,-0.0292 0.276113,-0.0292 0.204369,0 0.352584,0.0375 0.444593,0.11219 0.09199,0.0747 0.138074,0.18039 0.138074,0.31693 0,0.0179 -0.0024,0.0499 -0.007,0.0963 -0.0046,0.0463 -0.01014,0.0951 -0.01657,0.1463 -0.0064,0.0511 -0.01197,0.0995 -0.01656,0.14502 -0.0046,0.0454 -0.0069,0.0772 -0.0069,0.0951 0,0.0407 0.0083,0.0696 0.02484,0.0866 0.01653,0.017 0.03549,0.0288 0.05669,0.0353 0.02114,0.006 0.04002,0.0114 0.05655,0.0146 0.01653,0.003 0.02484,0.0114 0.02484,0.0244 0,0.0358 -0.0056,0.0724 -0.01657,0.10971 -0.01103,0.0374 -0.029,0.0715 -0.05388,0.10239 -0.02479,0.0309 -0.05889,0.0561 -0.102133,0.0756 -0.04317,0.0195 -0.09621,0.0293 -0.158802,0.0293 -0.08833,0 -0.154622,-0.0188 -0.198785,-0.0561 -0.04416,-0.0374 -0.07363,-0.0894 -0.08836,-0.15604 -0.04416,0.0569 -0.101739,0.10644 -0.172626,0.14873 -0.07084,0.0422 -0.163342,0.0634 -0.277432,0.0634 -0.05526,0 -0.107376,-0.006 -0.156044,-0.017 -0.04875,-0.0114 -0.09117,-0.0301 -0.126973,-0.0561 -0.03594,-0.026 -0.0645,-0.0597 -0.08562,-0.10119 -0.02121,-0.0414 -0.03178,-0.0914 -0.03178,-0.14991 z m 0.858779,-0.27795 c -0.04791,0 -0.09483,0.003 -0.140831,0.01 -0.04596,0.006 -0.08701,0.0166 -0.122913,0.0304 -0.03586,0.0138 -0.06484,0.0321 -0.08697,0.0548 -0.02208,0.0228 -0.0331,0.0504 -0.0331,0.0829 0,0.0373 0.01329,0.0634 0.04002,0.078 0.02671,0.0146 0.05566,0.0219 0.08696,0.0219 0.02948,0 0.05895,-0.006 0.08838,-0.0171 0.02943,-0.0113 0.05569,-0.0288 0.0787,-0.0524 0.02299,-0.0236 0.04276,-0.0525 0.05934,-0.0866 0.01653,-0.0342 0.02674,-0.0748 0.03042,-0.12192 z m 1.986496,0.27795 c 0.05335,0 0.09982,-0.007 0.139426,-0.0195 0.03954,-0.013 0.07407,-0.0277 0.103504,-0.0439 0.02943,-0.0163 0.05434,-0.0309 0.07459,-0.0439 0.02022,-0.013 0.03865,-0.0195 0.05526,-0.0195 0.0423,0 0.06345,0.0243 0.06345,0.0731 0,0.0114 -0.0028,0.0272 -0.0083,0.0475 -0.0055,0.0203 -0.01288,0.0415 -0.02208,0.0634 -0.0092,0.0219 -0.01891,0.0426 -0.02902,0.0621 -0.01014,0.0195 -0.01977,0.0342 -0.02895,0.0439 -0.0092,0.008 -0.02535,0.0212 -0.04831,0.039 -0.02301,0.0179 -0.05388,0.0358 -0.09252,0.0537 -0.03865,0.0179 -0.08373,0.0337 -0.135333,0.0476 -0.05146,0.0138 -0.108609,0.0207 -0.171222,0.0207 -0.06991,0 -0.142185,-0.009 -0.216703,-0.0281 -0.07454,-0.0187 -0.142219,-0.0512 -0.202999,-0.0975 -0.06069,-0.0463 -0.110887,-0.10896 -0.150459,-0.18778 -0.03952,-0.0788 -0.05941,-0.17752 -0.05941,-0.29617 0,-0.0422 0.0033,-0.0906 0.0097,-0.14501 0.0065,-0.0545 0.01985,-0.11058 0.04002,-0.16824 0.0202,-0.0577 0.04752,-0.11461 0.08149,-0.17067 0.03406,-0.056 0.07959,-0.10614 0.136651,-0.14993 0.05705,-0.0439 0.125688,-0.0793 0.205757,-0.10608 0.08002,-0.0268 0.175333,-0.0402 0.285775,-0.0402 0.09021,0 0.168069,0.009 0.23332,0.0281 0.06535,0.0186 0.11923,0.0439 0.161509,0.0756 0.04236,0.0316 0.07416,0.0686 0.09528,0.11093 0.02121,0.0422 0.03174,0.0877 0.03174,0.13646 0,0.0877 -0.03126,0.15246 -0.09379,0.19382 -0.06261,0.0414 -0.15099,0.0622 -0.265149,0.0622 -0.02758,0 -0.04648,-0.002 -0.05662,-0.006 -0.01011,-0.004 -0.01518,-0.0134 -0.01518,-0.028 0,-0.039 -8.56e-4,-0.074 -0.0027,-0.10485 -0.0019,-0.0308 -0.007,-0.0569 -0.01523,-0.078 -0.0082,-0.0211 -0.02076,-0.0374 -0.03729,-0.0488 -0.01653,-0.0114 -0.04048,-0.0171 -0.07174,-0.0171 -0.05706,0 -0.102698,0.0163 -0.136686,0.0488 -0.03406,0.0324 -0.05989,0.0719 -0.07731,0.11824 -0.01749,0.0463 -0.02854,0.0939 -0.03313,0.1426 -0.0046,0.0487 -0.007,0.0895 -0.007,0.12192 0,0.11545 0.02076,0.19593 0.06217,0.24137 0.0414,0.0455 0.107221,0.0683 0.197466,0.0683 z m 1.290628,0.32424 c -0.127059,0 -0.232481,-0.0159 -0.316216,-0.0476 -0.08368,-0.0317 -0.150528,-0.0751 -0.200207,-0.13038 -0.04968,-0.0553 -0.08461,-0.11991 -0.104891,-0.19386 -0.02025,-0.074 -0.03039,-0.15313 -0.03039,-0.23767 0,-0.0975 0.01341,-0.193 0.04005,-0.28649 0.02667,-0.0933 0.07227,-0.17674 0.136721,-0.24981 0.06444,-0.0731 0.149534,-0.13208 0.255384,-0.17674 0.105817,-0.0447 0.237912,-0.0671 0.396234,-0.0671 0.23195,0 0.398066,0.05 0.498418,0.14999 0.100249,0.0999 0.150528,0.24011 0.150528,0.42053 0,0.0504 -0.0042,0.10602 -0.01249,0.16694 -0.0083,0.061 -0.02393,0.12158 -0.04692,0.18166 -0.02297,0.0601 -0.05439,0.11864 -0.09393,0.17556 -0.03949,0.0568 -0.08971,0.1072 -0.150459,0.15113 -0.06076,0.0439 -0.133911,0.0789 -0.219531,0.10488 -0.08553,0.0259 -0.186313,0.039 -0.302305,0.039 z M 35.745,28.934577 c -0.06993,0 -0.12562,0.016 -0.166991,0.0476 -0.04146,0.0317 -0.07275,0.0699 -0.09391,0.11456 -0.02121,0.0447 -0.03503,0.0919 -0.04146,0.14148 -0.0064,0.0495 -0.0097,0.0914 -0.0097,0.12551 0,0.10726 0.01932,0.18614 0.05799,0.23648 0.03865,0.0504 0.09388,0.0756 0.165706,0.0756 0.06441,0 0.117345,-0.0179 0.158767,-0.0536 0.04144,-0.0358 0.07366,-0.0788 0.09662,-0.12923 0.02301,-0.0503 0.03873,-0.1032 0.04692,-0.15845 0.0083,-0.0552 0.01251,-0.10157 0.01251,-0.13895 0,-0.0813 -0.01716,-0.14509 -0.05115,-0.19137 -0.03402,-0.0463 -0.09244,-0.0695 -0.175333,-0.0695 z m 1.345926,0.60219 c -0.0056,0.0748 -0.01201,0.14594 -0.01932,0.21336 -0.0073,0.0674 -0.01293,0.12633 -0.01662,0.17673 -0.0018,0.0195 -0.0065,0.0325 -0.01381,0.039 -0.0073,0.007 -0.02304,0.01 -0.04692,0.01 h -0.09943 c -0.05703,0 -0.103538,-0.005 -0.139478,-0.0159 -0.03577,-0.0105 -0.06436,-0.0256 -0.08557,-0.0451 -0.02112,-0.0195 -0.03591,-0.0435 -0.04416,-0.0719 -0.0083,-0.0284 -0.01245,-0.0614 -0.01245,-0.0988 0,-0.0243 0.0014,-0.059 0.0041,-0.1036 0.0028,-0.0447 0.0078,-0.10649 0.01518,-0.18529 0.0073,-0.0788 0.01617,-0.17876 0.02628,-0.29986 0.01009,-0.12105 0.02256,-0.271 0.03729,-0.4498 0.0018,-0.0357 0.0065,-0.0569 0.01381,-0.0634 0.0055,-0.005 0.02025,-0.007 0.04416,-0.007 h 0.107735 c 0.05514,0 0.100301,0.006 0.135247,0.0171 0.03493,0.0114 0.06352,0.026 0.0856,0.0439 0.02208,0.0178 0.03777,0.039 0.04696,0.0634 0.0091,0.0243 0.0147,0.0496 0.01653,0.0755 0.0534,-0.0878 0.114176,-0.14708 0.182254,-0.17793 0.06811,-0.0308 0.14818,-0.0464 0.240224,-0.0464 0.04975,0 0.09763,0.004 0.143589,0.0122 0.046,0.008 0.08749,0.022 0.124249,0.0415 0.03678,0.0194 0.06816,0.0451 0.09388,0.0768 0.02576,0.0317 0.04421,0.0719 0.05523,0.12074 0.0571,-0.0943 0.11971,-0.15979 0.187787,-0.19631 0.06809,-0.0366 0.153731,-0.0549 0.256755,-0.0549 0.0571,0 0.111881,0.005 0.164352,0.0159 0.05239,0.0105 0.09804,0.0289 0.136652,0.0548 0.03868,0.026 0.06955,0.0613 0.09256,0.10602 0.02299,0.0447 0.03445,0.10039 0.03445,0.16703 0,0.0504 -0.0028,0.11215 -0.0083,0.18529 -0.0055,0.0731 -0.01203,0.15239 -0.01938,0.23766 -0.0074,0.0853 -0.01557,0.17315 -0.02479,0.26333 -0.0092,0.0902 -0.01662,0.17674 -0.02213,0.25964 -0.0018,0.0179 -0.0037,0.0317 -0.0055,0.0415 -0.0018,0.01 -0.0051,0.0171 -0.0097,0.0219 -0.0046,0.005 -0.01155,0.008 -0.02069,0.01 -0.0092,0.002 -0.02215,0.002 -0.03865,0.002 h -0.08833 c -0.05886,0 -0.106896,-0.005 -0.14359,-0.0146 -0.0369,-0.01 -0.06544,-0.0237 -0.08562,-0.0415 -0.02032,-0.0178 -0.03457,-0.0403 -0.04284,-0.067 -0.0083,-0.0268 -0.01242,-0.0573 -0.01242,-0.0915 0,-0.0211 0.0014,-0.0512 0.0041,-0.0902 0.0027,-0.039 0.0065,-0.0813 0.01105,-0.12678 0.0046,-0.0455 0.0092,-0.0927 0.01382,-0.14137 0.0045,-0.0488 0.0092,-0.094 0.01377,-0.13528 0.0046,-0.0415 0.0083,-0.0777 0.01107,-0.10851 0.0028,-0.0308 0.0041,-0.0512 0.0041,-0.0609 0,-0.0423 -0.0097,-0.0797 -0.02899,-0.11218 -0.01929,-0.0325 -0.05663,-0.0488 -0.111846,-0.0488 -0.04788,0 -0.08932,0.0138 -0.124266,0.0414 -0.03498,0.0276 -0.06448,0.0659 -0.08836,0.11461 -0.02396,0.0487 -0.04325,0.10647 -0.05794,0.17306 -0.01475,0.0666 -0.02489,0.13899 -0.03044,0.21703 -0.0037,0.0504 -0.0083,0.10803 -0.01377,0.17308 -0.0055,0.065 -0.01194,0.14627 -0.01936,0.24379 -0.0018,0.0179 -0.0036,0.0318 -0.0055,0.0415 -0.0018,0.01 -0.005,0.0171 -0.0097,0.0219 -0.0046,0.005 -0.01149,0.008 -0.02068,0.01 -0.0092,0.002 -0.02217,0.002 -0.0387,0.002 h -0.08833 c -0.05886,0 -0.10681,-0.005 -0.143589,-0.0146 -0.03687,-0.01 -0.06541,-0.0237 -0.08562,-0.0415 -0.02023,-0.0178 -0.03453,-0.0403 -0.04276,-0.067 -0.0083,-0.0268 -0.01245,-0.0573 -0.01245,-0.0915 0,-0.0325 0.0033,-0.08 0.0097,-0.14259 0.0064,-0.0625 0.0129,-0.12755 0.01932,-0.195 0.0065,-0.0674 0.01293,-0.13165 0.01932,-0.19257 0.0064,-0.061 0.0097,-0.10528 0.0097,-0.13287 0,-0.0423 -0.0097,-0.0797 -0.02899,-0.11218 -0.01926,-0.0325 -0.05662,-0.0488 -0.111812,-0.0488 -0.04966,0 -0.09208,0.0162 -0.127058,0.0488 -0.03493,0.0325 -0.064,0.076 -0.08696,0.1304 -0.02301,0.0544 -0.04146,0.11824 -0.05519,0.19138 -0.01381,0.0731 -0.02347,0.14954 -0.02898,0.22917 z m 3.140677,0.12926 c 0.02205,-0.0683 0.04277,-0.13576 0.0621,-0.2024 0.01932,-0.0666 0.03877,-0.13776 0.05802,-0.21332 0.01927,-0.0755 0.04053,-0.15847 0.06349,-0.24861 0.02295,-0.0902 0.05014,-0.19305 0.08146,-0.30843 0.0056,-0.0228 0.01381,-0.0378 0.02484,-0.0451 0.01102,-0.007 0.03501,-0.011 0.07186,-0.011 0.02751,0 0.06441,8e-4 0.110374,0.002 0.04605,0.002 0.0912,0.007 0.135332,0.0171 0.04408,0.01 0.08236,0.0244 0.114588,0.0439 0.03219,0.0195 0.04832,0.0463 0.04832,0.0804 0,0.0276 -0.01107,0.0724 -0.03315,0.13409 -0.02208,0.0617 -0.05067,0.13206 -0.0856,0.21084 -0.03498,0.0788 -0.07407,0.16137 -0.117362,0.2475 -0.0432,0.0861 -0.08509,0.16747 -0.12562,0.24379 -0.04045,0.0764 -0.07827,0.14345 -0.113165,0.20111 -0.03498,0.0577 -0.06081,0.098 -0.07731,0.12069 -0.01477,0.0179 -0.02763,0.0285 -0.03873,0.0317 -0.01093,0.003 -0.02947,0.005 -0.05518,0.005 h -0.24581 c -0.03861,0 -0.07035,-0.006 -0.09523,-0.0183 -0.02475,-0.0122 -0.04557,-0.0281 -0.0621,-0.0475 -0.01657,-0.0195 -0.03051,-0.0418 -0.04149,-0.067 -0.01101,-0.0252 -0.02112,-0.0516 -0.03034,-0.0793 -0.0534,-0.16253 -0.09991,-0.30189 -0.139478,-0.41813 -0.03957,-0.11617 -0.07315,-0.21338 -0.100746,-0.29131 -0.0276,-0.078 -0.04971,-0.14022 -0.06628,-0.1865 -0.01653,-0.0463 -0.02948,-0.0822 -0.03866,-0.10725 -0.0092,-0.0253 -0.01573,-0.0423 -0.01936,-0.0512 -0.0037,-0.009 -0.0055,-0.015 -0.0055,-0.0183 0.0019,-0.0114 0.01103,-0.0236 0.0276,-0.0366 0.01653,-0.013 0.03774,-0.0195 0.06349,-0.0195 0.08475,0 0.156969,0.003 0.216824,0.009 0.05979,0.006 0.109499,0.0159 0.149071,0.0305 0.03956,0.0146 0.07003,0.0349 0.09115,0.0609 0.02112,0.0259 0.03633,0.0601 0.04552,0.10239 0.0019,0.0114 0.0056,0.0341 0.0111,0.0682 0.0055,0.0341 0.01155,0.0752 0.01797,0.12315 0.0064,0.0479 0.01422,0.10083 0.0234,0.15849 0.0092,0.0576 0.018,0.11537 0.02628,0.17306 0.0083,0.0577 0.0166,0.11335 0.02484,0.16702 0.0083,0.0536 0.01608,0.0999 0.02347,0.13899 z m 1.475623,0.33397 c -0.126973,0 -0.23243,-0.0159 -0.316165,-0.0476 -0.08373,-0.0317 -0.150613,-0.0751 -0.200207,-0.13038 -0.04968,-0.0553 -0.08469,-0.11991 -0.104891,-0.19386 -0.02021,-0.074 -0.03036,-0.15313 -0.03036,-0.23767 0,-0.0975 0.01329,-0.19305 0.04002,-0.28649 0.02662,-0.0934 0.07222,-0.17679 0.136634,-0.24981 0.06445,-0.0732 0.14962,-0.13208 0.255471,-0.17674 0.105816,-0.0447 0.237911,-0.0671 0.396199,-0.0671 0.232036,0 0.398135,0.05 0.498452,0.14999 0.100301,0.0999 0.150494,0.24011 0.150494,0.42053 0,0.0504 -0.0042,0.10602 -0.01245,0.16694 -0.0083,0.061 -0.02397,0.12155 -0.04692,0.18166 -0.02297,0.0601 -0.05436,0.11869 -0.09393,0.17556 -0.03952,0.0569 -0.08968,0.10728 -0.150459,0.15113 -0.06073,0.0439 -0.133911,0.0789 -0.21953,0.10488 -0.08548,0.0259 -0.186348,0.039 -0.302357,0.039 z m 0.129782,-1.06542 c -0.06996,0 -0.125671,0.0159 -0.167076,0.0476 -0.04137,0.0316 -0.0727,0.0699 -0.09388,0.11456 -0.02116,0.0447 -0.03502,0.0919 -0.04141,0.14148 -0.0064,0.0495 -0.0097,0.0914 -0.0097,0.12551 0,0.10726 0.01932,0.18611 0.05799,0.23648 0.03865,0.0504 0.09391,0.0756 0.165705,0.0756 0.06441,0 0.117397,-0.0179 0.158767,-0.0536 0.04135,-0.0358 0.07366,-0.0788 0.09662,-0.12923 0.02297,-0.0504 0.0387,-0.1032 0.04697,-0.15845 0.0082,-0.0552 0.0124,-0.10157 0.0124,-0.13895 0,-0.0813 -0.01705,-0.14512 -0.05107,-0.19137 -0.03406,-0.0463 -0.09251,-0.0695 -0.175367,-0.0695 z m 1.564034,0.74118 c 0.05338,0 0.09982,-0.007 0.139427,-0.0195 0.03954,-0.013 0.07411,-0.0277 0.103538,-0.0439 0.02943,-0.0163 0.05436,-0.0309 0.07455,-0.0439 0.02025,-0.013 0.0387,-0.0195 0.05526,-0.0195 0.04233,0 0.06349,0.0243 0.06349,0.0731 0,0.0114 -0.0028,0.0272 -0.0083,0.0475 -0.0055,0.0203 -0.01288,0.0415 -0.02208,0.0634 -0.0092,0.0219 -0.01888,0.0426 -0.02898,0.0621 -0.01014,0.0195 -0.01977,0.0342 -0.02898,0.0439 -0.0092,0.008 -0.02535,0.0212 -0.04831,0.039 -0.02301,0.0179 -0.05379,0.0358 -0.09245,0.0537 -0.03865,0.0179 -0.0838,0.0337 -0.13535,0.0476 -0.05151,0.0138 -0.108609,0.0207 -0.171221,0.0207 -0.06993,0 -0.142151,-0.009 -0.216755,-0.0281 -0.0745,-0.0186 -0.142305,-0.0512 -0.202914,-0.0975 -0.06078,-0.0462 -0.110972,-0.10892 -0.150544,-0.18778 -0.03954,-0.0787 -0.05934,-0.17752 -0.05934,-0.29617 0,-0.0422 0.0032,-0.0907 0.0097,-0.14501 0.0064,-0.0545 0.01982,-0.11058 0.04002,-0.16824 0.02016,-0.0577 0.04747,-0.11461 0.08149,-0.17067 0.03407,-0.056 0.07962,-0.10614 0.136686,-0.14993 0.05703,-0.0439 0.125619,-0.0793 0.205688,-0.10608 0.08002,-0.0268 0.175402,-0.0402 0.285809,-0.0402 0.09024,0 0.16807,0.009 0.23332,0.0281 0.06537,0.0186 0.119196,0.0439 0.161526,0.0756 0.04228,0.0316 0.07411,0.0686 0.09526,0.11093 0.02117,0.0422 0.03174,0.0877 0.03174,0.13646 0,0.0877 -0.0313,0.1524 -0.09383,0.19382 -0.06261,0.0414 -0.15099,0.0622 -0.265149,0.0622 -0.02755,0 -0.04644,-0.002 -0.05658,-0.006 -0.01009,-0.004 -0.01513,-0.0134 -0.01513,-0.028 0,-0.039 -10e-4,-0.0739 -0.0028,-0.10485 -0.0018,-0.0308 -0.0068,-0.0569 -0.01513,-0.078 -0.0083,-0.0211 -0.0208,-0.0374 -0.03729,-0.0488 -0.01662,-0.0114 -0.04053,-0.0171 -0.0718,-0.0171 -0.05706,0 -0.102698,0.0163 -0.13672,0.0488 -0.03406,0.0324 -0.05985,0.0719 -0.07726,0.11824 -0.01749,0.0463 -0.02856,0.094 -0.03311,0.1426 -0.0046,0.0488 -0.0069,0.0895 -0.0069,0.12192 0,0.11545 0.02071,0.19589 0.06213,0.24137 0.04144,0.0455 0.107204,0.0683 0.197414,0.0683 z m 1.309986,0.32424 c -0.08106,0 -0.16156,-0.009 -0.241663,-0.0268 -0.08002,-0.0179 -0.151881,-0.0488 -0.215384,-0.0926 -0.06352,-0.0438 -0.115427,-0.10242 -0.155924,-0.17551 -0.04053,-0.0731 -0.06081,-0.16495 -0.06081,-0.27547 0,-0.0407 0.0037,-0.0895 0.01102,-0.1463 0.0073,-0.0569 0.02162,-0.11545 0.04281,-0.17556 0.02112,-0.0601 0.05064,-0.11984 0.08838,-0.17916 0.03772,-0.0593 0.08701,-0.11256 0.147735,-0.15972 0.06073,-0.047 0.134442,-0.0854 0.220935,-0.11459 0.08644,-0.0292 0.189552,-0.0439 0.309227,-0.0439 0.09571,0 0.176806,0.01 0.243016,0.0292 0.06625,0.0195 0.119658,0.046 0.160155,0.0793 0.04048,0.0333 0.06991,0.0719 0.08833,0.11579 0.0184,0.0439 0.02763,0.091 0.02763,0.14141 0,0.0748 -0.0171,0.13817 -0.05112,0.19018 -0.03406,0.052 -0.07818,0.0956 -0.132523,0.13046 -0.05427,0.0349 -0.114605,0.0621 -0.180884,0.0817 -0.06621,0.0195 -0.131615,0.0346 -0.195975,0.0451 -0.06445,0.0106 -0.123906,0.017 -0.178177,0.0195 -0.0543,0.002 -0.09619,0.004 -0.125619,0.004 0,0.0309 0.005,0.0613 0.01518,0.0914 0.01014,0.0301 0.02535,0.0565 0.0456,0.0792 0.0202,0.0227 0.04692,0.0414 0.08002,0.0561 0.03315,0.0146 0.07363,0.022 0.121543,0.022 0.04785,0 0.08509,-0.007 0.111812,-0.0207 0.02671,-0.0138 0.04836,-0.0293 0.06492,-0.0464 0.0165,-0.017 0.03078,-0.0325 0.04276,-0.0463 0.01199,-0.0138 0.02808,-0.0208 0.04836,-0.0208 0.0092,0 0.02532,0.002 0.04827,0.006 0.02304,0.004 0.04648,0.0127 0.07041,0.0256 0.02392,0.0129 0.0451,0.0309 0.06352,0.0537 0.01841,0.0227 0.02763,0.052 0.02763,0.0877 0,0.0471 -0.01662,0.0878 -0.04971,0.12189 -0.03315,0.0341 -0.07591,0.0618 -0.128343,0.0829 -0.05251,0.0211 -0.110956,0.0366 -0.175401,0.0463 -0.06433,0.01 -0.127025,0.0146 -0.187719,0.0146 z m 0.05244,-1.06542 c -0.0405,0 -0.07503,0.0102 -0.103589,0.0305 -0.02847,0.0203 -0.05251,0.0459 -0.07174,0.0767 -0.01934,0.0308 -0.03407,0.0651 -0.04422,0.10243 -0.01011,0.0373 -0.01797,0.0731 -0.02343,0.10722 0.114074,-0.002 0.206597,-0.0187 0.277518,-0.0512 0.0708,-0.0325 0.106296,-0.0788 0.106296,-0.13893 0,-0.0325 -0.01155,-0.0618 -0.03455,-0.0878 -0.02299,-0.026 -0.05845,-0.039 -0.106279,-0.039 z m 0.433476,-0.45829 c -0.0147,0 -0.0331,-0.007 -0.05514,-0.0207 -0.02211,-0.0138 -0.04564,-0.0326 -0.07047,-0.0561 -0.02481,-0.0235 -0.05064,-0.05 -0.07731,-0.0792 -0.02667,-0.0292 -0.05199,-0.0601 -0.07594,-0.0926 -0.03681,0.0325 -0.07411,0.0634 -0.111761,0.0926 -0.03774,0.0292 -0.07371,0.0557 -0.107735,0.0792 -0.03406,0.0235 -0.06445,0.0423 -0.09112,0.0561 -0.02667,0.0138 -0.0474,0.0207 -0.06213,0.0207 -0.0129,0 -0.0272,-0.004 -0.04281,-0.0134 -0.01561,-0.009 -0.03034,-0.0195 -0.0442,-0.0317 -0.01374,-0.0121 -0.02577,-0.024 -0.03586,-0.0354 -0.01007,-0.0113 -0.01518,-0.0195 -0.01518,-0.0243 0,-0.007 0.01146,-0.0228 0.03445,-0.0488 0.02304,-0.026 0.05247,-0.0573 0.08841,-0.0938 0.03594,-0.0366 0.07551,-0.0756 0.118716,-0.11702 0.0432,-0.0414 0.08422,-0.0817 0.122861,-0.12063 0.01107,-0.0114 0.0355,-0.0204 0.07315,-0.0269 0.03774,-0.007 0.07412,-0.01 0.109088,-0.01 0.02393,0 0.05204,0.002 0.08427,0.007 0.03214,0.005 0.0529,0.0146 0.06213,0.0292 0.02941,0.0438 0.05889,0.0874 0.08833,0.1304 0.02941,0.043 0.05614,0.0824 0.08009,0.11824 0.02393,0.0357 0.04325,0.0658 0.05799,0.0902 0.0147,0.0244 0.02208,0.0382 0.02208,0.0415 0,0.003 -0.0055,0.0106 -0.01656,0.022 -0.01107,0.0113 -0.02441,0.0232 -0.04002,0.0353 -0.01561,0.0122 -0.03226,0.0232 -0.04971,0.0329 -0.01749,0.01 -0.03267,0.0146 -0.0456,0.0146 z M 3.2720989,20.360907 c -0.3345629,0 -0.6656311,0.0433 -0.9883395,0.12222 -0.3268712,0.0799 -0.6270356,0.21182 -0.8961592,0.39696 -0.2790422,0.19204 -0.49814407,0.4351 -0.66751547,0.71133 -0.19893901,0.32443 -0.27844265,0.69884 -0.29524789,1.06606 -0.0137731,0.30116 0.0108609,0.6372 0.1474612,0.91641 0.10708411,0.21877 0.25331191,0.41918 0.45189116,0.57932 0.1828362,0.14742 0.3870857,0.26849 0.6119777,0.35706 0.2143738,0.0844 0.4277197,0.17082 0.6396781,0.26013 0.1787248,0.0754 0.3553767,0.16784 0.5046709,0.28504 0.1508188,0.11839 0.2142367,0.27646 0.2060483,0.45517 -0.00456,0.0979 -0.031418,0.19235 -0.091273,0.27506 -0.054202,0.0749 -0.1241977,0.13609 -0.2095601,0.18169 -0.086099,0.0461 -0.1802494,0.0761 -0.2783227,0.0934 -0.099547,0.0176 -0.2006521,0.0263 -0.3020317,0.0263 -0.230391,0 -0.4603879,-0.0348 -0.6684234,-0.12694 -0.172472,-0.0765 -0.3379719,-0.16786 -0.48635814,-0.27827 -0.11991502,-0.0892 -0.23929898,-0.17913 -0.35762084,-0.27008 -0.068797,-0.0529 -0.15676318,-0.10284 -0.25039968,-0.10284 -0.13375663,0 -0.19349145,0.14194 -0.22381281,0.23804 -0.08640734,0.2741 -0.1054567,0.64715 -0.11854456501,0.9313 -0.005036425,0.1106 0.078424425,0.22482 0.15309721501,0.3063 0.12880586,0.14064 0.30186036,0.25286 0.47652514,0.3427 0.23020257,0.11851 0.48419968,0.20367 0.73895058,0.26766 0.3039846,0.0764 0.6204745,0.10719 0.9355255,0.10719 0.3498607,0 0.7063337,-0.0409 1.0343184,-0.15489 0.2781172,-0.0966 0.5317032,-0.23503 0.7410577,-0.42744 0.202211,-0.18585 0.354623,-0.40291 0.4607649,-0.64497 0.1122747,-0.25615 0.1704164,-0.52507 0.1829903,-0.79994 0.013585,-0.29639 -0.017165,-0.61872 -0.1629816,-0.88904 -0.1203947,-0.22309 -0.2805669,-0.42278 -0.4885509,-0.58616 -0.1998641,-0.15703 -0.4219124,-0.28553 -0.6640894,-0.38275 -0.2330634,-0.0937 -0.4642595,-0.19156 -0.6917897,-0.29588 -0.1916585,-0.0878 -0.3794111,-0.19386 -0.5383842,-0.3251 -0.1587161,-0.13108 -0.227119,-0.30175 -0.218331,-0.49389 0.010381,-0.22694 0.115718,-0.41376 0.3121731,-0.55591 0.1897912,-0.13735 0.4068888,-0.21004 0.6505047,-0.21004 0.1515383,0 0.3054578,0.0294 0.4215013,0.12262 0.097114,0.0781 0.1667504,0.17344 0.2080354,0.28466 0.039486,0.10633 0.061893,0.21636 0.067803,0.32836 0.00444,0.0879 0.00767,0.17757 0.00363,0.26556 -6.852e-4,0.0148 -5.139e-4,0.0751 0.014732,0.0857 0.028591,0.0181 0.1555812,0.0203 0.1898769,0.0203 0.3235478,0 0.6459479,-0.0654 0.8841676,-0.2743 0.2414575,-0.21164 0.324233,-0.51065 0.337732,-0.80523 0.01761,-0.38468 -0.093996,-0.73795 -0.4012184,-1.0146 -0.3508713,-0.31584 -0.9022577,-0.38827 -1.3761619,-0.38827 z m 8.7468231,5.42855 c -0.02128,0.28839 -0.04605,0.56269 -0.07428,0.82289 -0.0283,0.26021 -0.04951,0.48752 -0.06364,0.68182 -0.007,0.0753 -0.02475,0.12544 -0.05304,0.15054 -0.0283,0.0251 -0.08836,0.0376 -0.180318,0.0376 h -0.381775 c -0.21917,0 -0.397672,-0.0204 -0.535506,-0.0611 -0.137919,-0.0407 -0.247487,-0.0988 -0.32879,-0.174 -0.08128,-0.0752 -0.137868,-0.16769 -0.169662,-0.27743 -0.03181,-0.1097 -0.04774,-0.2367 -0.04774,-0.38088 0,-0.094 0.0053,-0.22728 0.01593,-0.39972 0.01057,-0.17241 0.03006,-0.41067 0.0583,-0.71476 0.0283,-0.30407 0.06189,-0.68969 0.10078,-1.15682 0.03889,-0.46713 0.08661,-1.04548 0.143144,-1.73518 0.0071,-0.13795 0.0248,-0.21943 0.05304,-0.24453 0.02119,-0.0188 0.07774,-0.0282 0.169662,-0.0282 h 0.413587 c 0.212113,0 0.385373,0.022 0.51966,0.0659 0.134374,0.0439 0.243942,0.10035 0.32879,0.16929 0.08488,0.0689 0.144909,0.15047 0.180284,0.2445 0.03538,0.0941 0.05655,0.1913 0.06369,0.29157 0.204952,-0.33857 0.438272,-0.5674 0.699858,-0.68657 0.261586,-0.11913 0.569117,-0.17868 0.922712,-0.17868 0.190819,0 0.374666,0.0157 0.551438,0.047 0.17672,0.0314 0.335813,0.0847 0.477244,0.15986 0.141346,0.0753 0.261587,0.174 0.360534,0.29625 0.09898,0.12229 0.169662,0.27751 0.212112,0.46554 0.219136,-0.36362 0.459549,-0.616 0.721135,-0.75708 0.26162,-0.14109 0.590376,-0.2116 0.986284,-0.2116 0.219136,0 0.429484,0.0203 0.630976,0.0611 0.201491,0.0407 0.376499,0.11127 0.524953,0.21158 0.148472,0.10035 0.266897,0.2367 0.355274,0.40914 0.08845,0.1724 0.132609,0.38718 0.132609,0.64422 0,0.19439 -0.01062,0.43265 -0.03186,0.71479 -0.02121,0.28214 -0.04593,0.58778 -0.07419,0.91697 -0.02832,0.32917 -0.0601,0.66774 -0.0954,1.01571 -0.03541,0.348 -0.06369,0.68186 -0.08488,1.00168 -0.0071,0.0689 -0.01418,0.12221 -0.02124,0.15981 -0.0071,0.0377 -0.01941,0.0659 -0.03711,0.0847 -0.01773,0.0188 -0.04425,0.0314 -0.07954,0.0376 -0.03534,0.006 -0.08485,0.009 -0.148506,0.009 h -0.339325 c -0.226246,0 -0.410075,-0.0188 -0.551472,-0.0564 -0.141397,-0.0376 -0.251,-0.0909 -0.328756,-0.15986 -0.07777,-0.069 -0.132609,-0.15521 -0.164387,-0.25864 -0.03183,-0.10347 -0.04776,-0.22107 -0.04776,-0.35271 0,-0.0815 0.0053,-0.19751 0.01593,-0.34797 0.01062,-0.15043 0.02475,-0.31352 0.04245,-0.48904 0.01765,-0.17552 0.03534,-0.35738 0.05302,-0.5455 0.0177,-0.18811 0.03534,-0.36207 0.05298,-0.52196 0.0177,-0.15989 0.03183,-0.29941 0.04242,-0.41854 0.01062,-0.1191 0.01593,-0.19746 0.01593,-0.23506 0,-0.16306 -0.03709,-0.3073 -0.111332,-0.43266 -0.07426,-0.12537 -0.217406,-0.18811 -0.429519,-0.18811 -0.183846,0 -0.342888,0.0533 -0.477244,0.15989 -0.134339,0.1066 -0.247453,0.25394 -0.339377,0.442 -0.09187,0.18811 -0.166151,0.41072 -0.222682,0.66776 -0.05658,0.25709 -0.09544,0.53607 -0.116643,0.83703 -0.01413,0.19439 -0.03183,0.41695 -0.05304,0.66772 -0.02124,0.25086 -0.04594,0.56433 -0.07423,0.94058 -0.0071,0.0689 -0.0141,0.12221 -0.02124,0.15981 -0.0071,0.0377 -0.01936,0.0659 -0.03709,0.0847 -0.0177,0.0188 -0.04416,0.0314 -0.07954,0.0376 -0.03531,0.006 -0.08481,0.009 -0.148472,0.009 h -0.33936 c -0.226296,0 -0.410092,-0.0188 -0.551437,-0.0564 -0.141432,-0.0376 -0.251,-0.0909 -0.328756,-0.15986 -0.07782,-0.069 -0.132557,-0.15521 -0.164421,-0.25864 -0.03183,-0.10347 -0.04769,-0.22107 -0.04769,-0.35271 0,-0.12537 0.0123,-0.30877 0.03711,-0.55019 0.02472,-0.24138 0.04947,-0.49218 0.07419,-0.75239 0.02475,-0.2602 0.04959,-0.50786 0.07431,-0.74297 0.0247,-0.2351 0.037,-0.40599 0.037,-0.51252 0,-0.16306 -0.037,-0.3073 -0.111315,-0.43266 -0.07419,-0.12537 -0.217423,-0.18811 -0.429536,-0.18811 -0.19087,0 -0.353458,0.0627 -0.487831,0.18811 -0.134288,0.12536 -0.245655,0.2931 -0.334015,0.50315 -0.08836,0.21001 -0.159076,0.45611 -0.212112,0.73828 -0.05302,0.28211 -0.09013,0.57684 -0.111282,0.88408 z m 10.796635,-3.57387 c 0.664638,0 1.164854,0.18184 1.500668,0.54546 0.335813,0.36367 0.503763,0.93735 0.503763,1.72113 0,0.48903 -0.06361,0.92478 -0.190956,1.30728 -0.127247,0.38248 -0.303985,0.70688 -0.53023,0.9734 -0.226246,0.26647 -0.491343,0.46866 -0.795414,0.6066 -0.304036,0.13796 -0.632688,0.2069 -0.986232,0.2069 -0.374717,0 -0.668115,-0.0721 -0.880262,-0.21628 -0.212078,-0.14424 -0.378229,-0.34802 -0.498384,-0.61137 -0.02124,0.22575 -0.03889,0.39816 -0.05305,0.51732 -0.01415,0.1191 -0.02472,0.21477 -0.03183,0.28679 -0.0071,0.0721 -0.01238,0.1364 -0.0159,0.19283 -0.0036,0.0565 -0.01059,0.13166 -0.02121,0.22571 -0.01062,0.0941 -0.02299,0.22259 -0.03709,0.38557 -0.01418,0.16304 -0.03534,0.38876 -0.06366,0.67718 -0.0071,0.0753 -0.0247,0.1254 -0.05302,0.1505 -0.02832,0.0251 -0.08836,0.0376 -0.180284,0.0376 h -0.381809 c -0.219188,0 -0.397673,-0.0204 -0.535506,-0.0612 -0.13792,-0.0407 -0.247539,-0.0987 -0.32879,-0.17393 -0.0813,-0.0753 -0.137885,-0.16773 -0.169663,-0.27746 -0.03183,-0.10974 -0.04776,-0.23668 -0.04776,-0.38086 0,-0.0627 0.01065,-0.23204 0.03183,-0.50794 0.02121,-0.27583 0.04771,-0.60657 0.07954,-0.99217 0.03183,-0.38562 0.06717,-0.80099 0.106056,-1.24616 0.03889,-0.4451 0.07599,-0.86992 0.111332,-1.27434 0.03538,-0.4044 0.06541,-0.76339 0.09019,-1.07688 0.02472,-0.31347 0.04413,-0.52978 0.0583,-0.64892 0.007,-0.13795 0.02472,-0.21943 0.05304,-0.24453 0.02119,-0.0188 0.07774,-0.0282 0.169663,-0.0282 h 0.413587 c 0.381775,0 0.659292,0.0705 0.832518,0.21162 0.173175,0.14107 0.259822,0.30879 0.259822,0.50314 0.162605,-0.28838 0.372953,-0.49527 0.631027,-0.62068 0.258057,-0.1254 0.577939,-0.18811 0.959714,-0.18811 z m -0.77412,1.25086 c -0.360619,0 -0.625717,0.13787 -0.795413,0.41379 -0.169663,0.2759 -0.254529,0.65209 -0.254529,1.1286 0,0.16298 0.01239,0.32292 0.03714,0.47965 0.02472,0.15678 0.06892,0.29782 0.132574,0.42322 0.06361,0.12541 0.150254,0.22572 0.259788,0.30092 0.109602,0.0752 0.249235,0.11291 0.418914,0.11291 0.303985,0 0.55853,-0.13165 0.763585,-0.39502 0.205003,-0.26331 0.30753,-0.67717 0.30753,-1.24149 0,-0.1567 -0.01237,-0.30872 -0.03712,-0.45611 -0.02477,-0.14735 -0.06893,-0.27743 -0.13254,-0.39028 -0.06364,-0.11286 -0.152001,-0.20379 -0.265167,-0.27272 -0.113079,-0.069 -0.25804,-0.10347 -0.43476,-0.10347 z m 6.41679,1.09101 c -0.04237,0 -0.09013,-0.002 -0.143179,-0.005 -0.05298,-0.003 -0.104257,-0.009 -0.153731,-0.0188 -0.04947,-0.009 -0.09201,-0.0219 -0.12723,-0.0376 -0.03541,-0.0157 -0.0531,-0.036 -0.0531,-0.0611 0,-0.0815 0.0036,-0.15674 0.01067,-0.22572 0.007,-0.069 0.01057,-0.14103 0.01057,-0.21631 0,-0.13791 -0.02124,-0.25077 -0.06369,-0.33857 -0.0424,-0.0878 -0.127213,-0.13161 -0.25446,-0.13161 -0.197979,0 -0.362383,0.11437 -0.493142,0.34326 -0.13081,0.22882 -0.213825,0.5721 -0.249251,1.0298 -0.01413,0.20063 -0.03363,0.42791 -0.05833,0.68183 -0.02472,0.25397 -0.04769,0.49847 -0.06893,0.73362 -0.02112,0.23511 -0.03892,0.44359 -0.05298,0.62543 -0.01413,0.1818 -0.02124,0.30092 -0.02124,0.35731 0,0.0627 -0.02472,0.10978 -0.07419,0.14111 -0.04954,0.0314 -0.102527,0.047 -0.15911,0.047 h -0.381775 c -0.219222,0 -0.397707,-0.0204 -0.535558,-0.0611 -0.137834,-0.0407 -0.247436,-0.0988 -0.328773,-0.174 -0.0813,-0.0752 -0.137851,-0.16769 -0.169662,-0.27743 -0.03183,-0.1097 -0.04773,-0.2367 -0.04773,-0.38088 0,-0.094 0.0053,-0.22728 0.0159,-0.39972 0.01059,-0.17241 0.03003,-0.41067 0.0583,-0.71476 0.02832,-0.30407 0.06189,-0.68969 0.10078,-1.15682 0.0389,-0.46713 0.08661,-1.04548 0.143161,-1.73518 0.01417,-0.18183 0.08836,-0.27276 0.222717,-0.27276 h 0.413604 c 0.197894,0 0.364079,0.0188 0.498452,0.0564 0.134322,0.0376 0.24389,0.0894 0.32879,0.15519 0.08476,0.0659 0.146656,0.14266 0.18556,0.23043 0.03889,0.0878 0.06541,0.17867 0.07954,0.27271 0.08481,-0.1442 0.18556,-0.26804 0.30222,-0.37147 0.116677,-0.10346 0.238631,-0.1881 0.365895,-0.25392 0.127212,-0.0658 0.258057,-0.11289 0.392345,-0.14111 0.134373,-0.0282 0.258108,-0.0423 0.371205,-0.0423 0.134322,0 0.270443,0.022 0.408362,0.0658 0.1378,0.0439 0.263333,0.10973 0.376413,0.19749 0.113132,0.0878 0.203256,0.20066 0.270494,0.33857 0.06712,0.13796 0.100712,0.30097 0.100712,0.48908 0,0.16928 -0.02832,0.32917 -0.08487,0.47965 -0.05656,0.15046 -0.137833,0.2837 -0.24389,0.39971 -0.106056,0.11598 -0.235067,0.20686 -0.387085,0.27272 -0.152053,0.0658 -0.319951,0.0988 -0.503763,0.0988 z m 3.500422,3.0189 c -0.31106,0 -0.620406,-0.0345 -0.927988,-0.10343 -0.307462,-0.069 -0.583216,-0.18815 -0.827157,-0.35739 -0.24389,-0.16929 -0.443668,-0.39505 -0.599147,-0.67714 -0.15553,-0.28212 -0.233354,-0.63644 -0.233354,-1.06277 0,-0.15681 0.01413,-0.34484 0.04245,-0.56428 0.02827,-0.21947 0.08305,-0.4452 0.164353,-0.67714 0.08134,-0.23202 0.19445,-0.46242 0.339359,-0.69129 0.144943,-0.22883 0.334066,-0.43421 0.567421,-0.61601 0.233269,-0.18182 0.516097,-0.32914 0.848399,-0.44203 0.332284,-0.11286 0.728158,-0.16929 1.187758,-0.16929 0.367676,0 0.678736,0.0376 0.933247,0.11286 0.254528,0.0752 0.459566,0.17712 0.615095,0.30565 0.155565,0.12851 0.268644,0.27746 0.33936,0.44674 0.07072,0.16929 0.106056,0.35113 0.106056,0.54543 0,0.28845 -0.06544,0.53299 -0.196181,0.73362 -0.130758,0.20065 -0.300472,0.36837 -0.509022,0.50321 -0.208601,0.13477 -0.440156,0.23979 -0.694668,0.31504 -0.254511,0.0752 -0.505527,0.13323 -0.752963,0.17396 -0.247488,0.0408 -0.475463,0.0658 -0.684012,0.0753 -0.208601,0.009 -0.369441,0.0141 -0.482556,0.0141 0,0.11913 0.01944,0.2367 0.05833,0.35268 0.03885,0.11604 0.09727,0.21788 0.175025,0.30568 0.07774,0.0878 0.180284,0.15981 0.307496,0.21627 0.437519,0.19399 1.190363,0.0222 1.41522,-0.51946 0.612081,0.0351 1.241429,0.65968 0.695216,1.22486 -0.127213,0.13165 -0.29165,0.23826 -0.493142,0.31976 -0.201474,0.0815 -0.425972,0.14106 -0.673425,0.17868 -0.247402,0.0376 -0.487815,0.0564 -0.721169,0.0564 z m 0.201525,-4.10991 c -0.155564,0 -0.288138,0.0392 -0.397672,0.11754 -0.109637,0.0784 -0.201491,0.17712 -0.275753,0.29625 -0.07423,0.11913 -0.13081,0.25077 -0.169663,0.395 -0.03889,0.14423 -0.06897,0.28222 -0.09016,0.41379 0.438341,-0.006 0.793615,-0.072 1.065771,-0.19747 0.272292,-0.12541 0.408327,-0.30408 0.408327,-0.53607 0,-0.1254 -0.0442,-0.23826 -0.132557,-0.33857 -0.08838,-0.10027 -0.224464,-0.15047 -0.408293,-0.15047 z m 17.765753,4.40634 c -0.898352,2.90184 -4.045539,0.79237 -5.796555,-2.48776 -0.02832,0.33227 -0.05658,0.65835 -0.08481,0.97811 -0.02832,0.31975 -0.05658,0.63014 -0.0849,0.93103 -0.0071,0.0753 -0.02475,0.12544 -0.05298,0.15054 -0.02832,0.0251 -0.08845,0.0376 -0.180284,0.0376 h -0.381775 c -0.219171,0 -0.470701,-0.0382 -0.612098,-0.0789 -0.14138,-0.0407 -0.250999,-0.0987 -0.328738,-0.17397 -0.07783,-0.0752 -0.132643,-0.17088 -0.164438,-0.28689 -0.03178,-0.11594 -0.04767,-0.24917 -0.04767,-0.39968 0,-0.0753 0.0035,-0.15366 0.01059,-0.23511 0.0071,-0.0815 0.01773,-0.19754 0.03183,-0.348 0.01413,-0.15046 0.03361,-0.34792 0.05833,-0.59249 0.02472,-0.24451 0.05478,-0.56749 0.09013,-0.96873 0.03534,-0.40127 0.07606,-0.89502 0.121987,-1.48125 0.01881,-0.23944 0.271916,-1.99011 -0.143435,-2.38414 0.0648,-0.0575 2.107609,-0.30532 2.107609,0.80777 0,0.0628 -0.0053,0.16769 -0.01586,0.31505 -0.01062,0.14734 -0.02304,0.32605 -0.03712,0.53614 -0.0141,0.20998 -0.03363,0.44668 -0.05843,0.71 -0.0247,0.26337 -0.04767,0.53923 -0.06883,0.82765 0.268215,-0.21703 2.018444,-1.71748 2.018563,-2.19824 0.753118,0.25801 1.587864,1.23212 0.837607,1.87526 -0.663233,0.56855 -1.837749,1.21689 -1.65135,1.39794 1.580275,2.05745 2.401007,3.55267 4.432659,3.06805 z m -2.076089,-1.28393 c 0,-0.094 0.0053,-0.22728 0.01588,-0.39972 0.01059,-0.17241 0.03008,-0.41067 0.05826,-0.71476 0.02832,-0.30407 0.06193,-0.68969 0.100831,-1.15682 0.01653,-0.19861 0.207076,-1.69037 -0.104137,-1.97971 -0.03455,-0.0321 1.965372,-0.37857 1.965372,0.82765 0,0.094 -0.0072,0.23509 -0.02126,0.42317 -0.01413,0.18814 -0.03358,0.44362 -0.0583,0.76651 -0.02479,0.32293 -0.05833,0.7242 -0.10078,1.20385 -0.01569,0.17749 -0.07782,1.75048 0.174134,1.88568 0.06528,0.035 -2.030007,0.4022 -2.030007,-0.85585 z m -7.565558,-5.48762 c 0.04942,0.12536 0.09084,0.25423 0.127298,0.38561 0.281629,1.01596 0.543918,2.21476 0.727679,2.87304 0.110818,0.39693 0.619481,2.66372 1.107912,3.07539 0.04216,0.0356 -0.574119,0.047 -0.673066,0.047 h -0.540851 c -0.304036,0 -0.546179,-0.0329 -0.726462,-0.0987 -0.180284,-0.0658 -0.318152,-0.16142 -0.413587,-0.28686 -0.09549,-0.12541 -0.164404,-0.27743 -0.206837,-0.45614 -0.04238,-0.17865 -0.07771,-0.38094 -0.106022,-0.60662 h -1.845252 l -0.350083,1.2979 c -0.03529,0.10031 -0.116626,0.15046 -0.243856,0.15046 h -0.562059 c -0.113114,0 -0.229791,-0.011 -0.34998,-0.0329 -0.120189,-0.0219 -0.228044,-0.058 -0.323445,-0.10814 -0.09547,-0.0502 -0.175008,-0.11442 -0.238614,-0.19279 -0.06366,-0.0784 -0.09543,-0.174 -0.09543,-0.28686 0,-0.13791 0.04947,-0.36367 0.148454,-0.67717 0.09895,-0.31349 0.224498,-0.66936 0.376465,-1.06745 0.451223,-1.18202 1.578167,-3.94513 1.40304,-4.55282 0.734719,-0.25037 2.462935,-0.27854 2.784701,0.53708 z m -2.16743,3.56903 h 1.219553 l -0.473202,-2.84485 z m 10.892601,-4.79903 c 0.547086,0 0.990549,0.41234 0.990549,0.92098 0,0.50867 -0.443463,0.92093 -0.990549,0.92093 -0.547087,0 -0.99055,-0.41226 -0.99055,-0.92093 0,-0.50864 0.443463,-0.92098 0.99055,-0.92098 z m -41.465808,7.70512 c -0.3110424,0 -0.6203889,-0.0345 -0.9279709,-0.10343 -0.3074621,-0.069 -0.5832152,-0.18815 -0.8271566,-0.35739 -0.24389,-0.16929 -0.4436685,-0.39505 -0.5991468,-0.67714 -0.1555298,-0.28212 -0.2333546,-0.63644 -0.2333546,-1.06277 0,-0.15681 0.014133,-0.34484 0.042433,-0.56428 0.028283,-0.21947 0.083067,-0.4452 0.164352,-0.67714 0.081354,-0.23202 0.1944679,-0.46242 0.3393766,-0.69129 0.144943,-0.22883 0.3340148,-0.43421 0.5674036,-0.61601 0.2332861,-0.18182 0.5160971,-0.32914 0.8483988,-0.44203 0.3323016,-0.11286 0.7281754,-0.16929 1.1877753,-0.16929 0.3676766,0 0.6787362,0.0376 0.9332472,0.11286 0.2545111,0.0752 0.4595658,0.17712 0.6150955,0.30565 0.1555641,0.12851 0.2686439,0.27746 0.3393595,0.44674 0.070716,0.16929 0.1060554,0.35113 0.1060554,0.54543 0,0.28845 -0.06544,0.53299 -0.1962143,0.73362 -0.1307417,0.20065 -0.3004385,0.36837 -0.5089879,0.50321 -0.2086007,0.13477 -0.4401566,0.23979 -0.6946677,0.31504 -0.2545282,0.0752 -0.5055274,0.13323 -0.7529806,0.17396 -0.2474875,0.0408 -0.4754459,0.0658 -0.6839953,0.0753 -0.2086007,0.009 -0.3694753,0.0141 -0.4825551,0.0141 0,0.11913 0.019443,0.2367 0.05833,0.35268 0.038852,0.11604 0.097268,0.21788 0.1750245,0.30568 0.077739,0.0878 0.1802837,0.15981 0.3074964,0.21627 0.4375185,0.19399 1.1903621,0.0222 1.4152027,-0.51946 0.6121833,0.0351 1.2414459,0.65968 0.695233,1.22486 -0.1272127,0.13165 -0.2916504,0.23826 -0.4931419,0.31976 -0.2014915,0.0815 -0.4259724,0.14106 -0.6734256,0.17868 -0.2474018,0.0376 -0.4878314,0.0564 -0.7211862,0.0564 z m 0.2015429,-4.10991 c -0.1555811,0 -0.2881386,0.0392 -0.3976724,0.11754 -0.1096537,0.0784 -0.2014915,0.17712 -0.2757532,0.29625 -0.074227,0.11913 -0.1308101,0.25077 -0.1696626,0.395 -0.038904,0.14423 -0.068968,0.28222 -0.090176,0.41379 0.4383579,-0.006 0.7936147,-0.072 1.0657875,-0.19747 0.2722928,-0.12541 0.4083278,-0.30408 0.4083278,-0.53607 0,-0.1254 -0.044197,-0.23826 -0.1325746,-0.33857 -0.08836,-0.10027 -0.2244467,-0.15047 -0.4082765,-0.15047 z"
     style="fill:#003488;fill-rule:evenodd;stroke-width:0.16517769"
     id="path139"
     inkscape:connector-curvature="0" />
  <g
     transform="matrix(0.17130717,0,0,0.15926755,-25.83304,-31.443573)"
     id="Layer1000">
    <path
       d="m 323.4236,284.9302 -22.0358,-22.0364 c -2.927,-2.9271 -6.5038,-2.8698 -9.2665,-0.1071 l -22.3885,22.3886 c -6.4618,6.4612 -7.0527,15.0794 -1.1693,20.0031 12.7243,10.6494 19.7216,-8.0625 28.1375,-8.0625 8.4169,0 15.1278,18.95 28.1379,8.0625 5.8835,-4.923 5.5682,-13.2651 -1.4153,-20.2482 z"
       style="fill:#003488;fill-rule:evenodd"
       id="path141"
       inkscape:connector-curvature="0" />
    <path
       d="m 284.7178,304.7757 c 4.1984,-3.3114 7.9261,-7.6598 11.9832,-7.6598 8.4169,0 15.1278,18.95 28.1379,8.0625 5.383,-4.5044 5.5755,-11.8707 0.2209,-18.4397 -6.8115,-5.9253 -11.3685,-6.666 -15.762,-3.3705 -7.9691,5.9774 -21.309,18.8174 -24.5805,21.4078 z"
       style="fill:#e4284d;fill-rule:evenodd"
       id="path143"
       inkscape:connector-curvature="0" />
    <path
       d="m 270.0507,221.0478 22.0357,22.0364 c 2.9271,2.927 6.5038,2.8697 9.2665,0.107 l 22.3886,-22.3885 c 6.4618,-6.4613 7.0527,-15.0795 1.1692,-20.0032 -12.7243,-10.6494 -19.7215,8.0626 -28.1374,8.0626 -8.4169,0 -15.1278,-18.9501 -28.138,-8.0626 -5.8834,4.9231 -5.5681,13.2651 1.4154,20.2483 z"
       style="fill:#003488;fill-rule:evenodd"
       id="path145"
       inkscape:connector-curvature="0" />
    <path
       d="m 308.7564,201.2022 c -4.1983,3.3114 -7.926,7.6599 -11.9831,7.6599 -8.4169,0 -15.1278,-18.9501 -28.138,-8.0626 -5.383,4.5044 -5.5755,11.8707 -0.2208,18.4397 6.8114,5.9253 11.3684,6.666 15.762,3.3705 7.9691,-5.9774 21.3089,-18.8173 24.5804,-21.4078 z"
       style="fill:#e4284d;fill-rule:evenodd"
       id="path147"
       inkscape:connector-curvature="0" />
    <path
       d="m 264.7954,279.6759 22.0364,-22.0357 c 2.9271,-2.9271 2.8698,-6.5038 0.1071,-9.2665 l -22.3886,-22.3886 c -6.4612,-6.4618 -15.0794,-7.0527 -20.0032,-1.1692 -10.6493,12.7243 8.0626,19.7215 8.0626,28.1374 0,8.4169 -18.95,15.1278 -8.0626,28.138 4.9231,5.8834 13.2652,5.5681 20.2483,-1.4154 z"
       style="fill:#003488;fill-rule:evenodd"
       id="path149"
       inkscape:connector-curvature="0" />
    <path
       d="m 244.9499,240.9702 c 3.3114,4.1983 7.6598,7.926 7.6598,11.9831 0,8.4169 -18.95,15.1278 -8.0626,28.138 4.5045,5.383 11.8708,5.5755 18.4397,0.2208 5.9254,-6.8114 6.666,-11.3684 3.3706,-15.762 C 260.38,257.581 247.54,244.2412 244.9496,240.9697 Z"
       style="fill:#e4284d;fill-rule:evenodd"
       id="path151"
       inkscape:connector-curvature="0" />
    <path
       d="m 328.6778,226.302 -22.0364,22.0357 c -2.927,2.9271 -2.8697,6.5039 -0.107,9.2666 l 22.3885,22.3885 c 6.4613,6.4618 15.0794,7.0527 20.0032,1.1693 10.6494,-12.7243 -8.0626,-19.7216 -8.0626,-28.1375 0,-8.4169 18.95,-15.1278 8.0626,-28.138 -4.9231,-5.8834 -13.2651,-5.5681 -20.2483,1.4154 z"
       style="fill:#003488;fill-rule:evenodd"
       id="path153"
       inkscape:connector-curvature="0" />
    <path
       d="m 348.5233,265.0078 c -3.3113,-4.1984 -7.6598,-7.9261 -7.6598,-11.9832 0,-8.4169 18.95,-15.1278 8.0626,-28.138 -4.5044,-5.3829 -11.8707,-5.5754 -18.4397,-0.2208 -5.9253,6.8114 -6.666,11.3685 -3.3705,15.762 5.9774,7.9691 18.8173,21.3089 21.4078,24.5805 z"
       style="fill:#e4284d;fill-rule:evenodd"
       id="path155"
       inkscape:connector-curvature="0" />
  </g>
  <g
     transform="matrix(0.17130717,0,0,0.15926755,-25.83304,-31.443573)"
     id="Layer1002">
    <path
       d="m 194.9037,321.789 c 0.9766,0 1.7011,0.2129 2.1739,0.6389 0.4725,0.4261 0.709,0.9816 0.709,1.6673 0,0.582 -0.1611,1.0259 -0.4831,1.3326 -0.322,0.3064 -0.7843,0.4595 -1.387,0.4595 -0.1868,0 -0.3064,-0.0181 -0.3583,-0.0544 -0.0518,-0.0363 -0.0779,-0.1117 -0.0779,-0.2259 0,-0.1041 -0.008,-0.239 -0.0235,-0.4051 -0.0156,-0.1664 -0.0545,-0.3274 -0.1168,-0.4833 -0.0624,-0.1556 -0.161,-0.2883 -0.296,-0.3974 -0.1352,-0.1089 -0.3223,-0.1636 -0.5609,-0.1636 -0.3325,0 -0.6288,0.1015 -0.8884,0.3039 -0.2597,0.2027 -0.3895,0.4649 -0.3895,0.7869 0,0.2806 0.1063,0.5091 0.3195,0.6857 0.2128,0.1766 0.4804,0.3404 0.8024,0.4909 0.3221,0.1506 0.6727,0.3039 1.052,0.4598 0.379,0.1559 0.7296,0.3609 1.0516,0.6154 0.3223,0.2546 0.5896,0.5715 0.8028,0.9508 0.2129,0.3792 0.3195,0.8597 0.3195,1.4414 0,0.4572 -0.0754,0.8855 -0.2262,1.2855 -0.1505,0.4 -0.3739,0.7481 -0.6699,1.0443 -0.2962,0.2959 -0.6701,0.5272 -1.1222,0.6933 -0.4518,0.1664 -0.9791,0.2495 -1.5817,0.2495 -0.5193,0 -0.9998,-0.0573 -1.4414,-0.1715 -0.4414,-0.1143 -0.8258,-0.2571 -1.1532,-0.4286 -0.3271,-0.1715 -0.5845,-0.3583 -0.7713,-0.561 -0.1871,-0.2027 -0.2806,-0.3869 -0.2806,-0.5533 0,-0.6854 0.0391,-1.1789 0.1171,-1.4803 0.0776,-0.3013 0.2205,-0.4518 0.4283,-0.4518 0.1454,0 0.2987,0.0621 0.4598,0.1868 0.161,0.1247 0.3455,0.265 0.5533,0.4209 0.2078,0.1557 0.4493,0.296 0.7245,0.4207 0.2753,0.1247 0.5947,0.1871 0.9584,0.1871 0.1454,0 0.2883,-0.0131 0.4286,-0.0391 0.1403,-0.0258 0.2648,-0.07 0.3739,-0.1324 0.1091,-0.0624 0.1976,-0.1454 0.265,-0.2495 0.0675,-0.1037 0.1012,-0.2284 0.1012,-0.3739 0,-0.2596 -0.0986,-0.4674 -0.2959,-0.6233 -0.1976,-0.1559 -0.4467,-0.2988 -0.7481,-0.4286 -0.3013,-0.1298 -0.6259,-0.2647 -0.974,-0.4051 -0.348,-0.1403 -0.6726,-0.3325 -0.9739,-0.5765 -0.3014,-0.2444 -0.5505,-0.5585 -0.7481,-0.9428 -0.1973,-0.3844 -0.2959,-0.8779 -0.2959,-1.4806 0,-0.6752 0.1272,-1.2466 0.3818,-1.7141 0.2543,-0.4674 0.5817,-0.8492 0.9816,-1.1455 0.4,-0.2959 0.8518,-0.5091 1.3558,-0.6389 0.5038,-0.1298 1.0052,-0.1947 1.5038,-0.1947 z m 11.5563,3.9739 c 0,0.218 -0.0181,0.5244 -0.0544,0.9192 -0.0363,0.3949 -0.0729,0.8054 -0.1092,1.2311 -0.0362,0.4261 -0.0728,0.826 -0.1091,1.1999 -0.0363,0.3742 -0.0544,0.6443 -0.0544,0.8105 0,0.3636 0.0907,0.6465 0.2727,0.8492 0.1817,0.2027 0.4337,0.3039 0.7557,0.3039 0.2806,0 0.5167,-0.1117 0.7089,-0.3351 0.1922,-0.2233 0.3481,-0.5142 0.4678,-0.8725 0.1193,-0.3585 0.2154,-0.7662 0.2882,-1.2234 0.0726,-0.4572 0.1273,-0.9196 0.1636,-1.387 0.0363,-0.4674 0.0675,-0.9218 0.0935,-1.3635 0.0258,-0.4416 0.0545,-0.8234 0.0856,-1.1454 0.0105,-0.0831 0.0417,-0.1559 0.0936,-0.218 0.0519,-0.0624 0.1349,-0.0936 0.2494,-0.0936 h 0.561 c 0.322,0 0.5842,0.0338 0.7869,0.1012 0.2027,0.0675 0.3637,0.1636 0.483,0.2883 0.1197,0.1247 0.2027,0.2781 0.2495,0.4598 0.0468,0.1817 0.07,0.392 0.07,0.631 0,0.1559 -0.008,0.3767 -0.0232,0.6624 -0.0156,0.2858 -0.0443,0.6804 -0.0859,1.1844 -0.0414,0.5037 -0.0907,1.1426 -0.148,1.9167 -0.057,0.7739 -0.1273,1.7323 -0.2103,2.8752 -0.0207,0.218 -0.0443,0.3478 -0.07,0.3895 -0.0261,0.0417 -0.1117,0.0624 -0.2574,0.0624 h -0.6078 c -0.3115,0 -0.5686,-0.0363 -0.7713,-0.1092 -0.2027,-0.0725 -0.3662,-0.1661 -0.491,-0.2803 -0.1244,-0.1145 -0.2128,-0.2495 -0.2647,-0.4054 -0.0519,-0.1556 -0.0831,-0.3169 -0.0936,-0.483 -0.1559,0.2702 -0.3299,0.4986 -0.5221,0.6857 -0.1922,0.1871 -0.392,0.3351 -0.5998,0.4442 -0.2078,0.1091 -0.4207,0.1868 -0.6389,0.2336 -0.2183,0.0467 -0.4312,0.0703 -0.639,0.0703 -0.3948,0 -0.748,-0.0649 -1.0596,-0.1948 -0.3118,-0.1301 -0.574,-0.3038 -0.7871,-0.5221 -0.2129,-0.2183 -0.3765,-0.4779 -0.4907,-0.7792 -0.1145,-0.3014 -0.1715,-0.6234 -0.1715,-0.9661 0,-0.1352 0.008,-0.356 0.0232,-0.6625 0.0156,-0.3064 0.0366,-0.6519 0.0624,-1.0363 0.0261,-0.3844 0.0547,-0.792 0.0859,-1.2231 0.0312,-0.4312 0.0595,-0.8391 0.0856,-1.2235 0.0261,-0.3844 0.0519,-0.722 0.0779,-1.0128 0.0258,-0.2908 0.0443,-0.4986 0.0545,-0.6233 0.021,-0.1871 0.0623,-0.3144 0.1247,-0.3819 0.0624,-0.0674 0.1661,-0.1012 0.3118,-0.1012 h 0.4986 c 0.322,0 0.5871,0.0312 0.7949,0.0936 0.2077,0.0621 0.3713,0.1505 0.4906,0.2647 0.1197,0.1143 0.2027,0.252 0.2495,0.413 0.0468,0.1611 0.07,0.3456 0.07,0.5534 z m 16.3562,-1.4806 c 0.9765,0 1.7115,0.3014 2.2051,0.904 0.4935,0.6024 0.7404,1.5531 0.7404,2.8517 0,0.8104 -0.0936,1.5324 -0.2807,2.1659 -0.187,0.6338 -0.4467,1.1716 -0.7792,1.6129 -0.3322,0.4417 -0.722,0.7767 -1.1687,1.0052 -0.4468,0.2287 -0.9298,0.343 -1.4491,0.343 -0.5508,0 -0.9819,-0.1196 -1.2934,-0.3586 -0.3119,-0.239 -0.5559,-0.5766 -0.7325,-1.0128 -0.0312,0.3739 -0.0573,0.6596 -0.078,0.8572 -0.0207,0.1973 -0.0363,0.3557 -0.0467,0.4751 -0.0105,0.1196 -0.0182,0.2259 -0.0236,0.3194 -0.005,0.0936 -0.0153,0.2183 -0.0309,0.3742 -0.0156,0.1556 -0.034,0.3688 -0.0547,0.6389 -0.0207,0.2702 -0.0519,0.6441 -0.0935,1.122 -0.0102,0.1247 -0.0363,0.2078 -0.078,0.2491 -0.0414,0.0417 -0.1298,0.0624 -0.2647,0.0624 h -0.561 c -0.322,0 -0.5845,-0.0337 -0.7872,-0.1012 -0.2024,-0.0675 -0.3634,-0.1636 -0.483,-0.2883 -0.1194,-0.1247 -0.2024,-0.2778 -0.2492,-0.4598 -0.0467,-0.1817 -0.0703,-0.392 -0.0703,-0.6309 0,-0.1041 0.0156,-0.3844 0.0468,-0.8417 0.0312,-0.4569 0.0703,-1.0051 0.1171,-1.644 0.0465,-0.639 0.0986,-1.3272 0.1556,-2.0648 0.0572,-0.7376 0.1117,-1.4414 0.1638,-2.1115 0.0519,-0.6701 0.0961,-1.2648 0.1324,-1.7844 0.0363,-0.5193 0.0649,-0.8779 0.0856,-1.0752 0.0105,-0.2285 0.0363,-0.3637 0.078,-0.4051 0.0311,-0.0312 0.1142,-0.0468 0.2494,-0.0468 h 0.6078 c 0.5609,0 0.9686,0.1168 1.2231,0.3507 0.2546,0.2336 0.3818,0.5116 0.3818,0.8337 0.239,-0.478 0.548,-0.821 0.9273,-1.0287 0.3792,-0.2078 0.8492,-0.3116 1.4102,-0.3116 z m -1.1376,2.0727 c -0.5297,0 -0.9192,0.2285 -1.1687,0.6857 -0.2494,0.457 -0.3739,1.0803 -0.3739,1.87 0,0.2699 0.0182,0.5349 0.0545,0.7946 0.0362,0.2599 0.1012,0.4935 0.1947,0.7013 0.0935,0.2078 0.2208,0.3742 0.3818,0.4986 0.161,0.1247 0.3663,0.1871 0.6157,0.1871 0.4467,0 0.8206,-0.2183 1.122,-0.6545 0.3013,-0.4363 0.4518,-1.122 0.4518,-2.0571 0,-0.2597 -0.0181,-0.5117 -0.0544,-0.7558 -0.0366,-0.244 -0.1015,-0.4597 -0.1948,-0.6465 -0.0935,-0.1871 -0.2233,-0.3376 -0.3897,-0.4522 -0.1661,-0.1142 -0.3793,-0.1712 -0.639,-0.1712 z m 13.4734,6.81 c -0.4569,0 -0.9116,-0.0573 -1.3635,-0.1715 -0.4518,-0.1143 -0.8572,-0.3115 -1.2155,-0.5922 -0.3585,-0.2806 -0.6519,-0.6545 -0.8804,-1.1219 -0.2288,-0.4675 -0.343,-1.0545 -0.343,-1.7609 0,-0.2599 0.021,-0.5715 0.0624,-0.9352 0.0416,-0.3636 0.1221,-0.7375 0.2415,-1.1219 0.1196,-0.3844 0.2857,-0.7662 0.4989,-1.1455 0.2129,-0.379 0.4907,-0.7194 0.8336,-1.0208 0.3428,-0.301 0.7583,-0.5453 1.2467,-0.7321 0.4882,-0.1871 1.0701,-0.2807 1.7453,-0.2807 0.5403,0 0.9972,0.0624 1.3714,0.1871 0.3739,0.1245 0.6752,0.2934 0.9037,0.5063 0.2288,0.2132 0.3949,0.4598 0.4986,0.7404 0.104,0.2803 0.1559,0.5817 0.1559,0.9037 0,0.4779 -0.0961,0.883 -0.2883,1.2155 -0.1922,0.3325 -0.4413,0.6103 -0.748,0.8336 -0.3064,0.2234 -0.6466,0.3975 -1.0208,0.5222 -0.3739,0.1247 -0.7427,0.2208 -1.1063,0.2883 -0.3634,0.0674 -0.6985,0.1091 -1.0052,0.1247 -0.3064,0.0156 -0.5428,0.0232 -0.709,0.0232 0,0.1976 0.0287,0.3924 0.0857,0.5845 0.0572,0.1922 0.1428,0.3612 0.2571,0.5066 0.1145,0.1454 0.265,0.2647 0.4521,0.3583 0.1868,0.0935 0.4155,0.1403 0.6857,0.1403 0.2701,0 0.4805,-0.0442 0.631,-0.1324 0.1508,-0.0884 0.2727,-0.1871 0.3662,-0.2962 0.0936,-0.1091 0.1741,-0.2078 0.2415,-0.2959 0.0675,-0.0885 0.1585,-0.1327 0.2727,-0.1327 0.0519,0 0.1429,0.0131 0.2727,0.0391 0.1298,0.0258 0.2625,0.0805 0.3974,0.1636 0.1352,0.083 0.2546,0.1973 0.3586,0.3427 0.1038,0.1454 0.1556,0.3325 0.1556,0.561 0,0.3013 -0.0935,0.5612 -0.2803,0.7792 -0.1871,0.2183 -0.4286,0.3949 -0.7248,0.5298 -0.296,0.1352 -0.6259,0.2339 -0.9893,0.2962 -0.3637,0.0624 -0.7169,0.0936 -1.0599,0.0936 z m 0.2962,-6.81 c -0.2287,0 -0.4235,0.0649 -0.5845,0.1948 -0.161,0.1298 -0.2959,0.2933 -0.4051,0.4909 -0.1091,0.1973 -0.1921,0.4156 -0.2494,0.6545 -0.057,0.2387 -0.1012,0.4675 -0.1324,0.6855 0.6441,-0.0102 1.1662,-0.1194 1.5662,-0.3272 0.3999,-0.2077 0.5998,-0.504 0.5998,-0.8883 0,-0.2078 -0.0649,-0.3946 -0.1948,-0.561 -0.1298,-0.1661 -0.3296,-0.2492 -0.5998,-0.2492 z m 14.0188,1.8077 c -0.0624,0 -0.1324,-0.003 -0.2104,-0.008 -0.0779,-0.005 -0.1533,-0.0156 -0.2259,-0.0311 -0.0728,-0.0156 -0.1352,-0.0363 -0.1871,-0.0624 -0.0519,-0.0258 -0.0779,-0.0595 -0.0779,-0.1012 0,-0.1349 0.005,-0.2597 0.0156,-0.3739 0.0104,-0.1142 0.0156,-0.2338 0.0156,-0.3586 0,-0.2284 -0.0312,-0.4155 -0.0936,-0.5609 -0.0624,-0.1455 -0.1871,-0.218 -0.3739,-0.218 -0.2908,0 -0.5326,0.1893 -0.7248,0.5686 -0.1922,0.3793 -0.3141,0.9479 -0.3662,1.7065 -0.0207,0.3325 -0.0494,0.7089 -0.0856,1.1298 -0.0363,0.4207 -0.0701,0.8258 -0.1012,1.2155 -0.0312,0.3895 -0.0573,0.7351 -0.078,1.0361 -0.0207,0.3013 -0.0312,0.4989 -0.0312,0.5922 0,0.104 -0.0363,0.1819 -0.1091,0.2338 -0.0726,0.0519 -0.1505,0.078 -0.2336,0.078 h -0.5612 c -0.3221,0 -0.5843,-0.0338 -0.7869,-0.1012 -0.2027,-0.0678 -0.3637,-0.1639 -0.4831,-0.2883 -0.1196,-0.1247 -0.2026,-0.2781 -0.2494,-0.4598 -0.0468,-0.182 -0.07,-0.3923 -0.07,-0.6313 0,-0.1556 0.008,-0.3764 0.0232,-0.6621 0.0156,-0.2858 0.0442,-0.6806 0.0859,-1.1844 0.0414,-0.504 0.0907,-1.1429 0.148,-1.9167 0.0572,-0.7742 0.1272,-1.7323 0.2103,-2.8752 0.021,-0.3013 0.1298,-0.4519 0.3274,-0.4519 h 0.6078 c 0.2908,0 0.5349,0.0312 0.7324,0.0936 0.1973,0.0621 0.3583,0.1479 0.483,0.2571 0.1248,0.1091 0.2155,0.2361 0.2727,0.3818 0.057,0.1454 0.0961,0.2959 0.1168,0.4519 0.1248,-0.239 0.2727,-0.4442 0.4442,-0.6157 0.1715,-0.1712 0.3507,-0.3116 0.5378,-0.4207 0.1868,-0.1091 0.3789,-0.1871 0.5765,-0.2339 0.1973,-0.0467 0.379,-0.07 0.5454,-0.07 0.1973,0 0.3974,0.0363 0.5998,0.1092 0.2027,0.0725 0.3872,0.1817 0.5533,0.3271 0.1661,0.1454 0.2988,0.3325 0.3975,0.561 0.0986,0.2287 0.1479,0.4989 0.1479,0.8104 0,0.2806 -0.0416,0.5454 -0.1247,0.7948 -0.0831,0.2492 -0.2024,0.47 -0.3583,0.6622 -0.1559,0.1922 -0.3455,0.343 -0.5689,0.4521 -0.2234,0.1089 -0.47,0.1636 -0.7401,0.1636 z m 9.7177,2.0412 c -0.0312,0.4779 -0.0678,0.9326 -0.1091,1.3638 -0.0417,0.4311 -0.0729,0.8075 -0.0936,1.1296 -0.0105,0.1247 -0.0363,0.2077 -0.0779,0.2494 -0.0414,0.0417 -0.1299,0.0624 -0.2648,0.0624 h -0.5613 c -0.322,0 -0.5842,-0.0338 -0.7869,-0.1012 -0.2023,-0.0678 -0.3636,-0.1639 -0.483,-0.2883 -0.1196,-0.1247 -0.2027,-0.2781 -0.2494,-0.4598 -0.0468,-0.182 -0.07,-0.3923 -0.07,-0.6313 0,-0.1556 0.008,-0.3764 0.0232,-0.6621 0.0156,-0.2858 0.0442,-0.6806 0.0859,-1.1844 0.0414,-0.504 0.0907,-1.1429 0.148,-1.9167 0.0572,-0.7742 0.1272,-1.7323 0.2103,-2.8752 0.0105,-0.2285 0.0366,-0.3637 0.0779,-0.4051 0.0312,-0.0312 0.1143,-0.0468 0.2495,-0.0468 h 0.6077 c 0.3116,0 0.5661,0.0363 0.7637,0.1092 0.1973,0.0725 0.3583,0.1661 0.483,0.2803 0.1247,0.1143 0.2129,0.2495 0.2648,0.4051 0.0521,0.1559 0.0833,0.3169 0.0935,0.4833 0.3013,-0.561 0.6441,-0.9403 1.0287,-1.1375 0.3844,-0.1976 0.8362,-0.2963 1.3555,-0.2963 0.2807,0 0.5508,0.0261 0.8105,0.078 0.2596,0.0519 0.4935,0.1403 0.7013,0.2647 0.2077,0.1248 0.3843,0.2883 0.5298,0.491 0.1454,0.2027 0.2494,0.4598 0.3118,0.7713 0.322,-0.6024 0.6752,-1.0205 1.0596,-1.2543 0.3843,-0.2339 0.8674,-0.3507 1.4493,-0.3507 0.322,0 0.631,0.0338 0.9272,0.1012 0.296,0.0678 0.5531,0.1846 0.7713,0.3507 0.218,0.1664 0.3921,0.3923 0.5219,0.678 0.1301,0.2858 0.195,0.6415 0.195,1.0673 0,0.3223 -0.0156,0.7168 -0.0468,1.1846 -0.0311,0.4674 -0.0674,0.9739 -0.1091,1.5193 -0.0417,0.5454 -0.0884,1.1064 -0.1403,1.683 -0.0519,0.5765 -0.0936,1.1299 -0.1247,1.6596 -0.0102,0.1143 -0.0207,0.2024 -0.0312,0.2648 -0.0102,0.0624 -0.0284,0.1091 -0.0544,0.1403 -0.0261,0.0312 -0.065,0.0519 -0.1168,0.0624 -0.0522,0.0105 -0.1248,0.0156 -0.2183,0.0156 h -0.4986 c -0.3325,0 -0.6027,-0.0312 -0.8104,-0.0936 -0.2078,-0.0623 -0.3688,-0.1505 -0.4831,-0.2647 -0.1142,-0.1145 -0.1947,-0.2574 -0.2415,-0.4286 -0.0467,-0.1715 -0.0703,-0.3663 -0.0703,-0.5845 0,-0.135 0.008,-0.3271 0.0236,-0.5766 0.0155,-0.2492 0.0362,-0.5193 0.0623,-0.8104 0.0258,-0.2909 0.0519,-0.5922 0.078,-0.9037 0.0258,-0.3118 0.0518,-0.6001 0.0776,-0.8649 0.0261,-0.265 0.0468,-0.496 0.0624,-0.6936 0.0156,-0.1973 0.0235,-0.3271 0.0235,-0.3895 0,-0.2701 -0.0547,-0.5091 -0.1635,-0.7169 -0.1092,-0.2077 -0.3195,-0.3115 -0.6313,-0.3115 -0.2701,0 -0.5037,0.0882 -0.7013,0.2648 -0.1973,0.1766 -0.3634,0.4209 -0.4986,0.7324 -0.1349,0.3119 -0.2441,0.6806 -0.3271,1.1064 -0.0834,0.4261 -0.1403,0.8884 -0.1715,1.387 -0.0207,0.322 -0.0468,0.6908 -0.078,1.1064 -0.0312,0.4155 -0.0674,0.9351 -0.1091,1.5584 -0.0102,0.1143 -0.0207,0.2024 -0.0312,0.2648 -0.0102,0.0624 -0.0286,0.1091 -0.0544,0.1403 -0.0261,0.0312 -0.0649,0.0519 -0.1171,0.0624 -0.0519,0.0105 -0.1244,0.0156 -0.218,0.0156 h -0.4986 c -0.3325,0 -0.6026,-0.0312 -0.8104,-0.0936 -0.2078,-0.0623 -0.3688,-0.1505 -0.483,-0.2647 -0.1143,-0.1145 -0.1948,-0.2574 -0.2415,-0.4286 -0.0468,-0.1715 -0.0703,-0.3663 -0.0703,-0.5845 0,-0.2078 0.0181,-0.5117 0.0547,-0.9117 0.0362,-0.3999 0.0725,-0.8155 0.1088,-1.2466 0.0366,-0.4312 0.0729,-0.8414 0.1091,-1.2311 0.0366,-0.3895 0.0548,-0.6727 0.0548,-0.8493 0,-0.2701 -0.0548,-0.5091 -0.1639,-0.7169 -0.1088,-0.2077 -0.3195,-0.3115 -0.631,-0.3115 -0.2806,0 -0.5196,0.1038 -0.7169,0.3115 -0.1973,0.2078 -0.3608,0.4859 -0.4909,0.8337 -0.1298,0.3481 -0.2336,0.756 -0.3115,1.2234 -0.078,0.4675 -0.1324,0.9559 -0.1636,1.4647 z m 19.5505,2.9611 c -0.4569,0 -0.9116,-0.0573 -1.3634,-0.1715 -0.4519,-0.1143 -0.8572,-0.3115 -1.2155,-0.5922 -0.3586,-0.2806 -0.652,-0.6545 -0.8805,-1.1219 -0.2287,-0.4675 -0.3429,-1.0545 -0.3429,-1.7609 0,-0.2599 0.0209,-0.5715 0.0623,-0.9352 0.0417,-0.3636 0.1222,-0.7375 0.2415,-1.1219 0.1196,-0.3844 0.2858,-0.7662 0.4989,-1.1455 0.2129,-0.379 0.4907,-0.7194 0.8337,-1.0208 0.3427,-0.301 0.7583,-0.5453 1.2467,-0.7321 0.4881,-0.1871 1.07,-0.2807 1.7453,-0.2807 0.5402,0 0.9972,0.0624 1.3714,0.1871 0.3739,0.1245 0.6752,0.2934 0.9036,0.5063 0.2288,0.2132 0.3949,0.4598 0.4987,0.7404 0.104,0.2803 0.1559,0.5817 0.1559,0.9037 0,0.4779 -0.0961,0.883 -0.2883,1.2155 -0.1922,0.3325 -0.4414,0.6103 -0.7481,0.8336 -0.3064,0.2234 -0.6466,0.3975 -1.0207,0.5222 -0.3739,0.1247 -0.7427,0.2208 -1.1064,0.2883 -0.3634,0.0674 -0.6985,0.1091 -1.0052,0.1247 -0.3064,0.0156 -0.5428,0.0232 -0.7089,0.0232 0,0.1976 0.0286,0.3924 0.0856,0.5845 0.0573,0.1922 0.1429,0.3612 0.2571,0.5066 0.1145,0.1454 0.265,0.2647 0.4521,0.3583 0.1868,0.0935 0.4156,0.1403 0.6857,0.1403 0.2702,0 0.4805,-0.0442 0.631,-0.1324 0.1508,-0.0884 0.2727,-0.1871 0.3663,-0.2962 0.0935,-0.1091 0.174,-0.2078 0.2415,-0.2959 0.0674,-0.0885 0.1584,-0.1327 0.2727,-0.1327 0.0518,0 0.1428,0.0131 0.2727,0.0391 0.1298,0.0258 0.2624,0.0805 0.3974,0.1636 0.1352,0.083 0.2545,0.1973 0.3586,0.3427 0.1037,0.1454 0.1556,0.3325 0.1556,0.561 0,0.3013 -0.0936,0.5612 -0.2804,0.7792 -0.1871,0.2183 -0.4286,0.3949 -0.7248,0.5298 -0.2959,0.1352 -0.6259,0.2339 -0.9893,0.2962 -0.3637,0.0624 -0.7169,0.0936 -1.0599,0.0936 z m 0.2963,-6.81 c -0.2288,0 -0.4235,0.0649 -0.5845,0.1948 -0.161,0.1298 -0.296,0.2933 -0.4051,0.4909 -0.1091,0.1973 -0.1922,0.4156 -0.2495,0.6545 -0.0569,0.2387 -0.1012,0.4675 -0.1323,0.6855 0.644,-0.0102 1.1661,-0.1194 1.5661,-0.3272 0.4,-0.2077 0.5998,-0.504 0.5998,-0.8883 0,-0.2078 -0.0649,-0.3946 -0.1947,-0.561 -0.1299,-0.1661 -0.3297,-0.2492 -0.5998,-0.2492 z m 14.0187,1.8077 c -0.0624,0 -0.1324,-0.003 -0.2103,-0.008 -0.078,-0.005 -0.1534,-0.0156 -0.2259,-0.0311 -0.0729,-0.0156 -0.1353,-0.0363 -0.1871,-0.0624 -0.0519,-0.0258 -0.078,-0.0595 -0.078,-0.1012 0,-0.1349 0.005,-0.2597 0.0156,-0.3739 0.0105,-0.1142 0.0156,-0.2338 0.0156,-0.3586 0,-0.2284 -0.0312,-0.4155 -0.0935,-0.5609 -0.0624,-0.1455 -0.1871,-0.218 -0.3739,-0.218 -0.2909,0 -0.5327,0.1893 -0.7249,0.5686 -0.1921,0.3793 -0.314,0.9479 -0.3662,1.7065 -0.0207,0.3325 -0.0493,0.7089 -0.0856,1.1298 -0.0363,0.4207 -0.07,0.8258 -0.1012,1.2155 -0.0312,0.3895 -0.0573,0.7351 -0.0779,1.0361 -0.0207,0.3013 -0.0312,0.4989 -0.0312,0.5922 0,0.104 -0.0363,0.1819 -0.1092,0.2338 -0.0725,0.0519 -0.1505,0.078 -0.2335,0.078 h -0.5613 c -0.322,0 -0.5842,-0.0338 -0.7869,-0.1012 -0.2027,-0.0678 -0.3637,-0.1639 -0.483,-0.2883 -0.1196,-0.1247 -0.2027,-0.2781 -0.2495,-0.4598 -0.0467,-0.182 -0.07,-0.3923 -0.07,-0.6313 0,-0.1556 0.008,-0.3764 0.0233,-0.6621 0.0155,-0.2858 0.0442,-0.6806 0.0858,-1.1844 0.0414,-0.504 0.0908,-1.1429 0.148,-1.9167 0.0573,-0.7742 0.1273,-1.7323 0.2103,-2.8752 0.021,-0.3013 0.1299,-0.4519 0.3274,-0.4519 h 0.6078 c 0.2908,0 0.5349,0.0312 0.7325,0.0936 0.1973,0.0621 0.3583,0.1479 0.483,0.2571 0.1247,0.1091 0.2154,0.2361 0.2727,0.3818 0.057,0.1454 0.0961,0.2959 0.1168,0.4519 0.1247,-0.239 0.2727,-0.4442 0.4442,-0.6157 0.1715,-0.1712 0.3506,-0.3116 0.5377,-0.4207 0.1868,-0.1091 0.379,-0.1871 0.5766,-0.2339 0.1973,-0.0467 0.379,-0.07 0.5453,-0.07 0.1973,0 0.3975,0.0363 0.5999,0.1092 0.2026,0.0725 0.3872,0.1817 0.5533,0.3271 0.1661,0.1454 0.2988,0.3325 0.3974,0.561 0.0986,0.2287 0.148,0.4989 0.148,0.8104 0,0.2806 -0.0417,0.5454 -0.1248,0.7948 -0.083,0.2492 -0.2024,0.47 -0.3583,0.6622 -0.1559,0.1922 -0.3455,0.343 -0.5689,0.4521 -0.2233,0.1089 -0.47,0.1636 -0.7401,0.1636 z m 10.9488,2.9296 c 0.3013,0 0.5636,-0.0417 0.7869,-0.1247 0.2234,-0.0831 0.4181,-0.1766 0.5842,-0.2804 0.1664,-0.104 0.3068,-0.1976 0.421,-0.2806 0.1142,-0.0831 0.218,-0.1247 0.3115,-0.1247 0.239,0 0.3586,0.1559 0.3586,0.4677 0,0.0725 -0.0156,0.174 -0.0468,0.3038 -0.0312,0.1299 -0.0728,0.2648 -0.1247,0.4051 -0.0519,0.1403 -0.1066,0.2727 -0.1636,0.3974 -0.0572,0.1248 -0.1116,0.218 -0.1635,0.2804 -0.0522,0.0521 -0.1429,0.1352 -0.273,0.2494 -0.1298,0.1143 -0.3039,0.2285 -0.5219,0.3427 -0.2182,0.1146 -0.4728,0.2158 -0.7636,0.3039 -0.2908,0.0885 -0.6129,0.1327 -0.9661,0.1327 -0.3948,0 -0.8027,-0.0598 -1.2234,-0.1792 -0.4206,-0.1196 -0.8025,-0.3274 -1.1455,-0.6233 -0.3427,-0.2962 -0.6259,-0.6962 -0.8492,-1.2002 -0.2234,-0.5037 -0.3351,-1.135 -0.3351,-1.8933 0,-0.2701 0.0182,-0.5791 0.0547,-0.9272 0.0363,-0.3481 0.1117,-0.7064 0.2259,-1.0752 0.1143,-0.3687 0.2676,-0.7324 0.4598,-1.091 0.1922,-0.3583 0.4493,-0.6778 0.7713,-0.9584 0.3221,-0.2803 0.709,-0.5063 1.1608,-0.6778 0.4521,-0.1715 0.9896,-0.2571 1.6129,-0.2571 0.5091,0 0.9482,0.0598 1.317,0.1792 0.3688,0.1196 0.6727,0.2806 0.9116,0.483 0.239,0.2027 0.4181,0.4391 0.5375,0.7092 0.1196,0.2702 0.1794,0.561 0.1794,0.8725 0,0.561 -0.1766,0.974 -0.5298,1.2391 -0.3535,0.2647 -0.8521,0.3974 -1.4961,0.3974 -0.1559,0 -0.2622,-0.0131 -0.3195,-0.0391 -0.0572,-0.0258 -0.0856,-0.0856 -0.0856,-0.1792 0,-0.2492 -0.005,-0.4725 -0.0156,-0.6701 -0.0105,-0.1973 -0.0391,-0.3637 -0.0859,-0.4986 -0.0467,-0.1349 -0.1167,-0.239 -0.2103,-0.3118 -0.0935,-0.0726 -0.2285,-0.1089 -0.4051,-0.1089 -0.322,0 -0.5794,0.1038 -0.7715,0.3116 -0.1922,0.2077 -0.3377,0.4597 -0.4363,0.7557 -0.0986,0.2962 -0.161,0.6001 -0.1871,0.9116 -0.0258,0.3118 -0.0388,0.5715 -0.0388,0.7792 0,0.7376 0.1168,1.2521 0.3506,1.5429 0.2339,0.2909 0.6052,0.4363 1.1143,0.4363 z m 8.1125,0 c 0,-0.9349 0.4207,-1.6674 1.2623,-2.1972 0.8413,-0.53 2.0829,-0.8155 3.7244,-0.8571 0.0102,-0.1143 0.0181,-0.2104 0.0232,-0.2883 0.005,-0.078 0.008,-0.1741 0.008,-0.2883 0,-0.3325 -0.0624,-0.5973 -0.1871,-0.7948 -0.1247,-0.1973 -0.3844,-0.296 -0.7792,-0.296 -0.218,0 -0.3946,0.0312 -0.5298,0.0933 -0.135,0.0623 -0.2441,0.1482 -0.3272,0.2574 -0.0833,0.1088 -0.1508,0.2415 -0.2026,0.3971 -0.0519,0.1559 -0.0987,0.3274 -0.1404,0.5145 -0.0206,0.0932 -0.0674,0.1531 -0.1403,0.1791 -0.0725,0.0258 -0.1868,0.0389 -0.3427,0.0389 -1.0596,0 -1.5896,-0.4 -1.5896,-1.1999 0,-0.3221 0.0754,-0.6285 0.2262,-0.9193 0.1505,-0.2911 0.3739,-0.5428 0.6701,-0.756 0.2959,-0.2129 0.6672,-0.3818 1.114,-0.5063 0.4467,-0.1247 0.9663,-0.1871 1.5585,-0.1871 1.1531,0 1.9893,0.239 2.5089,0.7169 0.5193,0.4779 0.779,1.1531 0.779,2.0259 0,0.1143 -0.0128,0.3195 -0.0389,0.6154 -0.026,0.2963 -0.0572,0.6078 -0.0935,0.9352 -0.0363,0.3271 -0.0675,0.6361 -0.0935,0.9272 -0.0258,0.2908 -0.0389,0.4932 -0.0389,0.6077 0,0.2597 0.0468,0.444 0.1403,0.5531 0.0936,0.1091 0.1999,0.1845 0.3195,0.2259 0.1193,0.0417 0.2259,0.0729 0.3195,0.0935 0.0935,0.021 0.14,0.0729 0.14,0.156 0,0.2284 -0.0312,0.4623 -0.0933,0.7012 -0.0623,0.239 -0.1638,0.457 -0.3038,0.6546 -0.1403,0.1973 -0.3325,0.3583 -0.5769,0.483 -0.244,0.1247 -0.5425,0.1871 -0.896,0.1871 -0.4986,0 -0.8725,-0.1196 -1.122,-0.3586 -0.2491,-0.239 -0.4155,-0.5712 -0.4986,-0.9972 -0.2494,0.3637 -0.574,0.6803 -0.974,0.9504 -0.3999,0.2702 -0.9221,0.4054 -1.5661,0.4054 -0.3115,0 -0.6052,-0.0366 -0.8804,-0.1092 -0.2753,-0.0728 -0.5143,-0.1921 -0.7169,-0.3585 -0.2027,-0.1662 -0.3637,-0.3816 -0.4831,-0.6466 -0.1196,-0.2651 -0.1791,-0.5845 -0.1791,-0.9584 z m 4.8464,-1.7765 c -0.2702,0 -0.5352,0.0207 -0.7948,0.0624 -0.2597,0.0414 -0.4907,0.1063 -0.6934,0.1947 -0.2027,0.0885 -0.3662,0.2052 -0.491,0.3507 -0.1247,0.1454 -0.187,0.322 -0.187,0.5298 0,0.2389 0.0754,0.405 0.2262,0.4986 0.1505,0.0935 0.314,0.1403 0.4906,0.1403 0.1664,0 0.3325,-0.0363 0.4986,-0.1092 0.1664,-0.0725 0.3144,-0.1842 0.4442,-0.335 0.1299,-0.1505 0.2416,-0.3351 0.3351,-0.553 0.0935,-0.2183 0.1508,-0.478 0.1715,-0.7793 z"
       style="fill:#e4284d;fill-rule:evenodd"
       id="path227"
       inkscape:connector-curvature="0" />
    <path
       d="m 328.7948,333.165 c -0.4051,0 -0.792,-0.0729 -1.1608,-0.2183 -0.3688,-0.1454 -0.6908,-0.3739 -0.9663,-0.6857 -0.2753,-0.3115 -0.4935,-0.7064 -0.6545,-1.1843 -0.161,-0.4779 -0.2415,-1.0545 -0.2415,-1.7297 0,-0.3013 0.0209,-0.6364 0.0623,-1.0052 0.0417,-0.3688 0.1143,-0.7401 0.2183,-1.1143 0.1037,-0.3739 0.2491,-0.7375 0.4362,-1.0907 0.1871,-0.3532 0.4235,-0.6676 0.709,-0.9428 0.2857,-0.2753 0.6287,-0.4961 1.0287,-0.6622 0.3999,-0.1664 0.8699,-0.2495 1.4102,-0.2495 0.5196,0 0.9377,0.091 1.2546,0.2727 0.3167,0.1817 0.5168,0.4961 0.5998,0.9428 0.0207,-0.405 0.0417,-0.7582 0.0624,-1.0596 0.0207,-0.3013 0.0388,-0.5819 0.0544,-0.8416 0.0156,-0.2596 0.034,-0.5193 0.0547,-0.7792 0.0207,-0.2597 0.0414,-0.5556 0.0624,-0.8881 0.0102,-0.2288 0.0363,-0.3637 0.0779,-0.4054 0.0207,-0.0207 0.0468,-0.0337 0.0777,-0.0388 0.0312,-0.005 0.0885,-0.008 0.1715,-0.008 h 0.6078 c 0.3118,0 0.5714,0.0365 0.7792,0.1091 0.2078,0.0728 0.3739,0.1715 0.4986,0.2962 0.1247,0.1247 0.2129,0.2676 0.2651,0.4286 0.0518,0.161 0.0779,0.3297 0.0779,0.5063 0,0 -0.0105,0.1298 -0.0312,0.3897 -0.0209,0.2597 -0.0467,0.6052 -0.0779,1.0364 -0.0312,0.4311 -0.0675,0.9218 -0.1092,1.4726 -0.0416,0.5505 -0.083,1.1194 -0.1247,1.7062 -0.0414,0.587 -0.083,1.169 -0.1247,1.7455 -0.0414,0.5766 -0.0831,1.1064 -0.1244,1.5894 -0.0417,0.4831 -0.0754,0.8986 -0.1015,1.2467 -0.0258,0.3481 -0.0442,0.5791 -0.0545,0.6934 -0.0206,0.1247 -0.0467,0.2077 -0.0779,0.2494 -0.0312,0.0417 -0.1196,0.0624 -0.265,0.0624 h -0.561 c -0.218,0 -0.4232,-0.0182 -0.6154,-0.0545 -0.1922,-0.0365 -0.3586,-0.0989 -0.4986,-0.187 -0.1404,-0.0885 -0.2495,-0.2078 -0.3274,-0.3586 -0.078,-0.1505 -0.1168,-0.3453 -0.1168,-0.5842 -0.1871,0.3948 -0.4703,0.7168 -0.8493,0.966 -0.3793,0.2495 -0.8546,0.3742 -1.4261,0.3742 z m 1.3558,-6.81 c -0.5298,0 -0.9218,0.231 -1.1764,0.6934 -0.2545,0.4623 -0.3818,1.0831 -0.3818,1.8623 0,0.2699 0.0182,0.5349 0.0544,0.7946 0.0363,0.2599 0.1012,0.4935 0.1948,0.7013 0.0935,0.2078 0.2208,0.3742 0.3818,0.4986 0.161,0.1247 0.3662,0.1871 0.6157,0.1871 0.4467,0 0.8206,-0.2183 1.1219,-0.6545 0.3014,-0.4363 0.4519,-1.122 0.4519,-2.0571 0,-0.2597 -0.0156,-0.5117 -0.0468,-0.7558 -0.0312,-0.244 -0.0935,-0.4597 -0.1868,-0.6465 -0.0935,-0.1871 -0.2234,-0.3376 -0.3898,-0.4522 -0.1661,-0.1142 -0.3792,-0.1712 -0.6389,-0.1712 z m 13.3486,6.81 c -0.7166,0 -1.3115,-0.1015 -1.7841,-0.3039 -0.4728,-0.2027 -0.8492,-0.4805 -1.1299,-0.8337 -0.2803,-0.3534 -0.4779,-0.7662 -0.5921,-1.239 -0.1143,-0.4728 -0.1715,-0.9791 -0.1715,-1.5194 0,-0.6233 0.0754,-1.2336 0.2259,-1.8311 0.1508,-0.5973 0.4079,-1.1296 0.7716,-1.5974 0.3634,-0.4674 0.8439,-0.8438 1.4414,-1.1296 0.5973,-0.2857 1.3428,-0.4286 2.2363,-0.4286 1.309,0 2.2464,0.3195 2.8128,0.9584 0.5661,0.639 0.8492,1.535 0.8492,2.6881 0,0.322 -0.0235,0.6781 -0.07,1.0675 -0.0468,0.3895 -0.1352,0.7767 -0.265,1.1611 -0.1298,0.3844 -0.3064,0.7583 -0.5298,1.122 -0.2234,0.3637 -0.5066,0.6857 -0.8493,0.966 -0.343,0.2806 -0.756,0.504 -1.239,0.6701 -0.483,0.1664 -1.0519,0.2495 -1.7065,0.2495 z m 0.7325,-6.81 c -0.3946,0 -0.7089,0.1012 -0.9428,0.3039 -0.2336,0.2024 -0.4102,0.4467 -0.5298,0.7325 -0.1193,0.2854 -0.1973,0.5867 -0.2338,0.9037 -0.0363,0.3169 -0.0545,0.5845 -0.0545,0.8024 0,0.6857 0.1092,1.1897 0.3274,1.5118 0.218,0.322 0.5298,0.483 0.9349,0.483 0.3637,0 0.6622,-0.1143 0.896,-0.3427 0.2339,-0.2288 0.4156,-0.504 0.5454,-0.826 0.1298,-0.3221 0.2183,-0.6597 0.2651,-1.0129 0.0467,-0.3534 0.07,-0.6494 0.07,-0.8883 0,-0.5196 -0.0961,-0.9273 -0.2883,-1.2235 -0.1922,-0.2959 -0.5222,-0.4439 -0.9896,-0.4439 z m 13.3175,-2.0727 c 0.883,0 1.5324,0.1741 1.9479,0.5222 0.4156,0.3478 0.6234,0.792 0.6234,1.3323 0,0.4572 -0.1429,0.805 -0.4286,1.044 -0.2858,0.2389 -0.6985,0.3585 -1.2388,0.3585 -0.1454,0 -0.2443,-0.0156 -0.2962,-0.0467 -0.0519,-0.0312 -0.0779,-0.0885 -0.0779,-0.1715 0,-0.0936 -0.008,-0.1999 -0.0233,-0.3195 -0.0156,-0.1193 -0.0519,-0.2336 -0.1091,-0.3427 -0.0573,-0.1091 -0.1454,-0.2001 -0.2651,-0.2727 -0.1193,-0.0728 -0.2882,-0.1091 -0.5062,-0.1091 -0.2909,0 -0.5247,0.07 -0.7013,0.2103 -0.1766,0.1403 -0.2651,0.3144 -0.2651,0.5221 0,0.218 0.091,0.3921 0.2727,0.5219 0.182,0.1298 0.4105,0.252 0.6857,0.3662 0.2753,0.1143 0.5741,0.2313 0.8961,0.3507 0.322,0.1196 0.6208,0.2781 0.896,0.4754 0.2755,0.1972 0.504,0.4441 0.6857,0.7401 0.182,0.2962 0.2727,0.678 0.2727,1.1455 0,0.748 -0.2648,1.3609 -0.7946,1.8388 -0.53,0.4779 -1.3246,0.7169 -2.3845,0.7169 -0.2908,0 -0.6258,-0.0236 -1.0048,-0.0703 -0.3793,-0.0468 -0.7405,-0.1194 -1.0832,-0.218 -0.343,-0.0987 -0.6312,-0.2313 -0.8648,-0.3974 -0.2339,-0.1664 -0.3507,-0.3742 -0.3507,-0.6234 0,-0.0935 0.0182,-0.2077 0.0545,-0.343 0.0363,-0.1349 0.0935,-0.2647 0.1715,-0.3894 0.0779,-0.1248 0.1715,-0.2311 0.2803,-0.3195 0.1091,-0.0882 0.2418,-0.1324 0.3974,-0.1324 0.1248,0 0.239,0.0312 0.343,0.0936 0.1038,0.062 0.2259,0.1272 0.3663,0.1947 0.14,0.0675 0.314,0.1324 0.5218,0.1947 0.2078,0.0624 0.4833,0.0936 0.826,0.0936 0.2597,0 0.491,-0.0312 0.6934,-0.0936 0.2027,-0.0623 0.3039,-0.2026 0.3039,-0.4206 0,-0.1976 -0.0831,-0.356 -0.2492,-0.4754 -0.1664,-0.1196 -0.3767,-0.2313 -0.6313,-0.335 -0.2545,-0.1041 -0.5298,-0.2158 -0.8257,-0.3351 -0.2962,-0.1193 -0.5715,-0.2778 -0.826,-0.4754 -0.2546,-0.1973 -0.4649,-0.4493 -0.6313,-0.7557 -0.1661,-0.3064 -0.2492,-0.7038 -0.2492,-1.1922 0,-0.5298 0.1066,-0.9791 0.3195,-1.3479 0.2129,-0.3688 0.4881,-0.6676 0.826,-0.896 0.3376,-0.2285 0.7194,-0.3924 1.1452,-0.491 0.4261,-0.0986 0.8521,-0.148 1.2779,-0.148 z"
       style="fill:#e4284d;fill-rule:evenodd"
       id="path229"
       inkscape:connector-curvature="0" />
  </g>
</svg>
